<svg width="14" height="15" viewBox="0 0 14 15" fill="none" xmlns="http://www.w3.org/2000/svg">
<path d="M1.26753 14.5936C0.433923 14.5936 -0.0163808 13.6164 0.525213 12.9827L4.44814 8.39266C4.76037 8.02734 4.76037 7.48914 4.44814 7.12382L0.525212 2.53376C-0.0163817 1.90006 0.433922 0.922852 1.26753 0.922852H1.78264C2.07199 0.922852 2.34645 1.05118 2.53198 1.27322L6.21366 5.67947C6.6031 6.14556 7.31903 6.14682 7.71011 5.68211L11.4227 1.27058C11.6083 1.05012 11.8817 0.922852 12.1698 0.922852H12.6531C13.4867 0.922852 13.937 1.90006 13.3954 2.53376L9.47248 7.12382C9.16025 7.48914 9.16025 8.02734 9.47248 8.39266L13.3954 12.9827C13.937 13.6164 13.4867 14.5936 12.6531 14.5936H12.1698C11.8817 14.5936 11.6083 14.4664 11.4227 14.2459L7.71011 9.83436C7.31903 9.36965 6.6031 9.37092 6.21366 9.837L2.53198 14.2433C2.34645 14.4653 2.07199 14.5936 1.78264 14.5936H1.26753Z" fill="white"/>
</svg>
