<svg width="152" height="45" viewBox="0 0 152 45" fill="none" xmlns="http://www.w3.org/2000/svg">
<path d="M62.5898 38.707H58.0738V16.6074C58.0738 12.8281 59.0827 9.88146 61.1005 7.76759C63.1503 5.65371 65.8567 4.59677 69.2197 4.59677C72.8068 4.59677 75.5773 5.62168 77.531 7.6715C79.5168 9.72132 80.5097 12.3316 80.5097 15.5024C80.5097 17.4882 80.1413 19.2177 79.4047 20.691C78.7001 22.1644 77.7392 23.3014 76.5221 24.1021C75.3051 24.9028 74.0079 25.4953 72.6307 25.8797C71.2535 26.264 69.8122 26.4562 68.3068 26.4562H64.7037V22.2284H68.8353C70.9812 22.2284 72.6627 21.5878 73.8798 20.3067C75.1289 18.9935 75.7535 17.3601 75.7535 15.4064C75.7535 13.4847 75.1769 11.9153 74.0239 10.6982C72.9029 9.44908 71.2855 8.82452 69.1716 8.82452C67.1218 8.82452 65.5044 9.52915 64.3193 10.9384C63.1663 12.3156 62.5898 14.1412 62.5898 16.4153V38.707ZM87.9747 29.5789V5.0772H92.2985V29.5789C92.2985 30.732 92.4266 31.6768 92.6828 32.4134C92.9711 33.1181 93.4035 33.6305 93.98 33.9508C94.5565 34.2391 95.117 34.4312 95.6615 34.5273C96.206 34.6234 96.9266 34.6715 97.8234 34.6715V38.707C94.2362 38.707 91.69 38.0184 90.1846 36.6412C88.7113 35.264 87.9747 32.9099 87.9747 29.5789ZM122.927 38.707H114.616C111.061 38.707 108.514 38.1786 106.977 37.1216C105.6 36.1928 104.719 35.0878 104.335 33.8067C103.982 32.4935 103.806 30.78 103.806 28.6661V15.6466H108.034V28.6181C108.034 29.1946 108.05 29.691 108.082 30.1074C108.114 30.4917 108.226 31.0042 108.418 31.6448C108.61 32.2533 108.883 32.7658 109.235 33.1821C109.587 33.5665 110.1 33.9188 110.772 34.2391C111.445 34.5273 112.262 34.6715 113.223 34.6715H118.699V15.6466H122.927V38.707ZM147.834 15.6466V19.6822H139.331C138.402 19.6822 137.601 19.8583 136.929 20.2106C136.256 20.5629 135.92 21.0594 135.92 21.6999C135.92 22.0843 136 22.4366 136.16 22.7569C136.32 23.0451 136.496 23.2854 136.688 23.4775C136.913 23.6697 137.233 23.8779 137.649 24.1021C138.098 24.2942 138.434 24.4384 138.658 24.5345C138.914 24.5985 139.939 24.9188 141.733 25.4953C143.526 26.0718 144.856 26.5522 145.72 26.9366C146.585 27.3209 147.242 27.8494 147.69 28.522C148.171 29.1626 148.475 29.8031 148.603 30.4437C148.731 31.0522 148.795 31.6608 148.795 32.2693C148.795 36.5611 145.849 38.707 139.955 38.707H131.644V34.6715H139.955C142.966 34.6715 144.471 33.8707 144.471 32.2693C144.471 31.5006 144.023 30.8601 143.126 30.3476C142.261 29.8352 141.188 29.4028 139.907 29.0505C138.658 28.6982 137.393 28.2978 136.112 27.8494C134.863 27.369 133.79 26.6163 132.893 25.5914C132.028 24.5345 131.596 23.2373 131.596 21.6999C131.596 19.7462 132.349 18.2569 133.854 17.232C135.359 16.175 137.185 15.6466 139.331 15.6466H147.834Z" fill="#1F1F1F"/>
<path d="M41.6513 25.0619C42.8251 25.2416 43.6413 26.3428 43.3481 27.4934C42.1809 32.0734 39.5638 36.177 35.8594 39.1731C31.5954 42.6219 26.1977 44.355 20.723 44.0331C15.2483 43.7113 10.0909 41.3577 6.26031 37.433C2.42977 33.5084 0.20198 28.2953 0.0130656 22.8144C-0.175848 17.3335 1.68772 11.9794 5.23894 7.80037C8.79017 3.62129 13.7733 0.918126 19.2129 0.22008C24.6524 -0.477966 30.1566 0.879369 34.648 4.02636C38.5499 6.76032 41.4433 10.674 42.9231 15.1627C43.2949 16.2905 42.5563 17.4452 41.3977 17.7053C40.2391 17.9654 39.1014 17.2305 38.703 16.1119C37.4758 12.6665 35.2046 9.66694 32.1805 7.54803C28.5664 5.01572 24.1373 3.92351 19.7602 4.48521C15.3831 5.04691 11.3733 7.22208 8.51575 10.5849C5.65817 13.9477 4.15861 18.256 4.31062 22.6663C4.46264 27.0766 6.25528 31.2714 9.33762 34.4295C12.42 37.5875 16.57 39.4815 20.9754 39.7404C25.3807 39.9994 29.7241 38.6049 33.1553 35.8297C36.0263 33.5076 38.0856 30.3588 39.0727 26.8371C39.3931 25.6937 40.4775 24.8822 41.6513 25.0619Z" fill="#FFA559"/>
<circle cx="41.849" cy="21.1693" r="2.18106" fill="#009FBD"/>
<path d="M19.0594 30.1738H16.881V19.5139C16.881 17.6909 17.3677 16.2696 18.341 15.2499C19.3297 14.2303 20.6352 13.7205 22.2573 13.7205C23.9877 13.7205 25.324 14.2149 26.2664 15.2036C27.2242 16.1923 27.7032 17.4515 27.7032 18.9809C27.7032 19.9388 27.5255 20.773 27.1702 21.4837C26.8303 22.1943 26.3668 22.7428 25.7798 23.129C25.1927 23.5152 24.567 23.8011 23.9027 23.9864C23.2384 24.1718 22.5432 24.2645 21.817 24.2645H20.079V22.2252H22.072C23.107 22.2252 23.9181 21.9163 24.5052 21.2983C25.1077 20.6649 25.409 19.877 25.409 18.9346C25.409 18.0076 25.1309 17.2506 24.5747 16.6635C24.034 16.061 23.2538 15.7598 22.2342 15.7598C21.2454 15.7598 20.4652 16.0997 19.8936 16.7794C19.3375 17.4437 19.0594 18.3243 19.0594 19.4212V30.1738Z" fill="#1F1F1F"/>
</svg>
