<svg width="1080" height="579" viewBox="0 0 1080 579" fill="none" xmlns="http://www.w3.org/2000/svg">
<g clip-path="url(#clip0_1_581)">
<path d="M1 429.597L12.6783 418.151C23.4583 406.705 45.9167 383.813 68.375 366.644C90.8333 349.475 113.292 338.029 135.75 309.415C158.208 280.8 180.667 235.016 203.125 212.124C225.583 189.232 248.042 189.232 270.5 194.955C292.958 200.678 315.417 212.124 337.875 212.124C360.333 212.124 382.792 200.678 405.25 217.847C427.708 235.016 450.167 280.8 472.625 292.246C495.083 303.692 517.542 280.8 540 275.077C562.458 269.354 584.917 280.8 607.375 269.354C629.833 257.908 652.292 223.57 674.75 235.016C697.208 246.462 719.667 303.692 742.125 332.306C764.583 360.921 787.042 360.921 809.5 349.475C831.958 338.029 854.417 315.138 876.875 309.415C899.333 303.692 921.792 315.138 944.25 315.138C966.708 315.138 989.167 303.692 1011.62 275.077C1034.08 246.462 1056.54 200.678 1068.22 177.786L1079 154.894" stroke="url(#paint0_linear_1_581)" stroke-width="2.09264" stroke-linecap="round" stroke-linejoin="round"/>
<path fill-rule="evenodd" clip-rule="evenodd" d="M1 430.152L12.6783 418.683C23.4583 407.214 45.9167 384.276 68.375 367.072C90.8333 349.868 113.292 338.399 135.75 309.727C158.208 281.054 180.667 235.178 203.125 212.24C225.583 189.301 248.042 189.301 270.5 195.036C292.958 200.771 315.417 212.24 337.875 212.24C360.333 212.24 382.792 200.771 405.25 217.974C427.708 235.178 450.167 281.054 472.625 292.523C495.083 303.992 517.542 281.054 540 275.32C562.458 269.585 584.917 281.054 607.375 269.585C629.833 258.116 652.292 223.709 674.75 235.178C697.208 246.647 719.667 303.992 742.125 332.665C764.583 361.338 787.042 361.338 809.5 349.868C831.958 338.399 854.417 315.461 876.875 309.727C899.333 303.992 921.792 315.461 944.25 315.461C966.708 315.461 989.167 303.992 1011.62 275.32C1034.08 246.647 1056.54 200.771 1068.22 177.832L1079 154.894V464.559H1068.22C1056.54 464.559 1034.08 464.559 1011.62 464.559C989.167 464.559 966.708 464.559 944.25 464.559C921.792 464.559 899.333 464.559 876.875 464.559C854.417 464.559 831.958 464.559 809.5 464.559C787.042 464.559 764.583 464.559 742.125 464.559C719.667 464.559 697.208 464.559 674.75 464.559C652.292 464.559 629.833 464.559 607.375 464.559C584.917 464.559 562.458 464.559 540 464.559C517.542 464.559 495.083 464.559 472.625 464.559C450.167 464.559 427.708 464.559 405.25 464.559C382.792 464.559 360.333 464.559 337.875 464.559C315.417 464.559 292.958 464.559 270.5 464.559C248.042 464.559 225.583 464.559 203.125 464.559C180.667 464.559 158.208 464.559 135.75 464.559C113.292 464.559 90.8333 464.559 68.375 464.559C45.9167 464.559 23.4583 464.559 12.6783 464.559H1V430.152Z" fill="url(#paint1_linear_1_581)" fill-opacity="0.45"/>
<path d="M37.96 473.192C37.2133 473.192 36.536 473.059 35.928 472.792C35.3307 472.515 34.8507 472.131 34.488 471.64C34.136 471.149 33.96 470.573 33.96 469.912C33.96 469.24 34.1467 468.637 34.52 468.104C34.904 467.571 35.4107 467.208 36.04 467.016C35.4747 466.792 35.0373 466.467 34.728 466.04C34.4187 465.603 34.264 465.123 34.264 464.6C34.264 464.056 34.408 463.56 34.696 463.112C34.984 462.653 35.4 462.291 35.944 462.024C36.4987 461.747 37.1707 461.608 37.96 461.608C38.7493 461.608 39.416 461.747 39.96 462.024C40.5147 462.291 40.936 462.653 41.224 463.112C41.512 463.56 41.656 464.056 41.656 464.6C41.656 465.112 41.496 465.592 41.176 466.04C40.8667 466.477 40.4293 466.803 39.864 467.016C40.4933 467.219 40.9947 467.587 41.368 468.12C41.752 468.643 41.944 469.24 41.944 469.912C41.944 470.573 41.768 471.149 41.416 471.64C41.064 472.131 40.584 472.515 39.976 472.792C39.3787 473.059 38.7067 473.192 37.96 473.192ZM37.96 466.472C38.5787 466.472 39.064 466.312 39.416 465.992C39.7787 465.672 39.96 465.261 39.96 464.76C39.96 464.195 39.784 463.763 39.432 463.464C39.08 463.165 38.5893 463.016 37.96 463.016C37.3307 463.016 36.84 463.165 36.488 463.464C36.136 463.763 35.96 464.195 35.96 464.76C35.96 465.261 36.136 465.672 36.488 465.992C36.84 466.312 37.3307 466.472 37.96 466.472ZM37.96 471.752C38.728 471.752 39.304 471.571 39.688 471.208C40.072 470.835 40.264 470.36 40.264 469.784C40.264 469.144 40.056 468.653 39.64 468.312C39.2347 467.96 38.6747 467.784 37.96 467.784C37.2453 467.784 36.68 467.96 36.264 468.312C35.848 468.653 35.64 469.144 35.64 469.784C35.64 470.36 35.832 470.835 36.216 471.208C36.6107 471.571 37.192 471.752 37.96 471.752ZM49.2891 473L53.4171 461.8H55.2731L59.3691 473H57.5771L56.6171 470.264H52.0411L51.0811 473H49.2891ZM52.5211 468.92H56.1371L54.3291 463.816L52.5211 468.92ZM61.891 473V461.8H65.811C66.6857 461.8 67.411 461.949 67.987 462.248C68.563 462.536 68.9897 462.936 69.267 463.448C69.555 463.949 69.699 464.52 69.699 465.16C69.699 465.768 69.5603 466.328 69.283 466.84C69.0163 467.341 68.595 467.741 68.019 468.04C67.443 468.339 66.707 468.488 65.811 468.488H63.587V473H61.891ZM63.587 467.096H65.731C66.531 467.096 67.1017 466.925 67.443 466.584C67.795 466.232 67.971 465.757 67.971 465.16C67.971 464.541 67.795 464.061 67.443 463.72C67.1017 463.368 66.531 463.192 65.731 463.192H63.587V467.096ZM72.3354 473V461.8H76.1914C77.0767 461.8 77.802 461.949 78.3674 462.248C78.9434 462.547 79.37 462.952 79.6474 463.464C79.9247 463.965 80.0634 464.525 80.0634 465.144C80.0634 465.837 79.8767 466.467 79.5034 467.032C79.1407 467.597 78.57 468.003 77.7914 468.248L80.1754 473H78.2074L76.0314 468.488H74.0314V473H72.3354ZM74.0314 467.208H76.0954C76.8634 467.208 77.4234 467.021 77.7754 466.648C78.138 466.275 78.3194 465.789 78.3194 465.192C78.3194 464.595 78.1434 464.12 77.7914 463.768C77.4394 463.405 76.8687 463.224 76.0794 463.224H74.0314V467.208Z" fill="#868E96"/>
<path d="M193.896 473.192C193.16 473.192 192.531 473.048 192.008 472.76C191.485 472.472 191.075 472.088 190.776 471.608C190.488 471.128 190.312 470.605 190.248 470.04H191.832C191.928 470.595 192.157 471.021 192.52 471.32C192.883 471.619 193.347 471.768 193.912 471.768C194.691 471.768 195.331 471.405 195.832 470.68C196.344 469.944 196.616 468.819 196.648 467.304C196.392 467.773 195.992 468.173 195.448 468.504C194.915 468.835 194.296 469 193.592 469C192.963 469 192.371 468.851 191.816 468.552C191.261 468.253 190.813 467.837 190.472 467.304C190.131 466.76 189.96 466.12 189.96 465.384C189.96 464.733 190.12 464.12 190.44 463.544C190.76 462.968 191.208 462.504 191.784 462.152C192.371 461.789 193.064 461.608 193.864 461.608C194.685 461.608 195.379 461.763 195.944 462.072C196.509 462.381 196.963 462.792 197.304 463.304C197.645 463.816 197.891 464.392 198.04 465.032C198.2 465.672 198.28 466.328 198.28 467C198.28 468.237 198.104 469.32 197.752 470.248C197.411 471.176 196.915 471.901 196.264 472.424C195.613 472.936 194.824 473.192 193.896 473.192ZM193.976 467.544C194.424 467.544 194.824 467.443 195.176 467.24C195.528 467.037 195.805 466.771 196.008 466.44C196.221 466.099 196.328 465.725 196.328 465.32C196.328 464.883 196.221 464.499 196.008 464.168C195.805 463.827 195.523 463.56 195.16 463.368C194.808 463.176 194.408 463.08 193.96 463.08C193.512 463.08 193.112 463.176 192.76 463.368C192.408 463.56 192.125 463.827 191.912 464.168C191.709 464.499 191.608 464.877 191.608 465.304C191.608 465.987 191.832 466.531 192.28 466.936C192.728 467.341 193.293 467.544 193.976 467.544ZM205.477 473L209.605 461.8H211.461L215.557 473H213.765L212.805 470.264H208.229L207.269 473H205.477ZM208.709 468.92H212.325L210.517 463.816L208.709 468.92ZM218.078 473V461.8H221.998C222.873 461.8 223.598 461.949 224.174 462.248C224.75 462.536 225.177 462.936 225.454 463.448C225.742 463.949 225.886 464.52 225.886 465.16C225.886 465.768 225.748 466.328 225.47 466.84C225.204 467.341 224.782 467.741 224.206 468.04C223.63 468.339 222.894 468.488 221.998 468.488H219.774V473H218.078ZM219.774 467.096H221.918C222.718 467.096 223.289 466.925 223.63 466.584C223.982 466.232 224.158 465.757 224.158 465.16C224.158 464.541 223.982 464.061 223.63 463.72C223.289 463.368 222.718 463.192 221.918 463.192H219.774V467.096ZM228.523 473V461.8H232.379C233.264 461.8 233.99 461.949 234.555 462.248C235.131 462.547 235.558 462.952 235.835 463.464C236.112 463.965 236.251 464.525 236.251 465.144C236.251 465.837 236.064 466.467 235.691 467.032C235.328 467.597 234.758 468.003 233.979 468.248L236.363 473H234.395L232.219 468.488H230.219V473H228.523ZM230.219 467.208H232.283C233.051 467.208 233.611 467.021 233.963 466.648C234.326 466.275 234.507 465.789 234.507 465.192C234.507 464.595 234.331 464.12 233.979 463.768C233.627 463.405 233.056 463.224 232.267 463.224H230.219V467.208Z" fill="#868E96"/>
<path d="M512.288 473V463.72L510.48 464.136V462.888L512.96 461.8H514.048V473H512.288ZM518.436 473V463.72L516.628 464.136V462.888L519.108 461.8H520.196V473H518.436ZM527.702 473L531.83 461.8H533.686L537.782 473H535.99L535.03 470.264H530.454L529.494 473H527.702ZM530.934 468.92H534.55L532.742 463.816L530.934 468.92ZM540.304 473V461.8H544.224C545.099 461.8 545.824 461.949 546.4 462.248C546.976 462.536 547.403 462.936 547.68 463.448C547.968 463.949 548.112 464.52 548.112 465.16C548.112 465.768 547.973 466.328 547.696 466.84C547.429 467.341 547.008 467.741 546.432 468.04C545.856 468.339 545.12 468.488 544.224 468.488H542V473H540.304ZM542 467.096H544.144C544.944 467.096 545.515 466.925 545.856 466.584C546.208 466.232 546.384 465.757 546.384 465.16C546.384 464.541 546.208 464.061 545.856 463.72C545.515 463.368 544.944 463.192 544.144 463.192H542V467.096ZM550.748 473V461.8H554.604C555.49 461.8 556.215 461.949 556.78 462.248C557.356 462.547 557.783 462.952 558.06 463.464C558.338 463.965 558.476 464.525 558.476 465.144C558.476 465.837 558.29 466.467 557.917 467.032C557.554 467.597 556.983 468.003 556.204 468.248L558.589 473H556.62L554.444 468.488H552.444V473H550.748ZM552.444 467.208H554.508C555.276 467.208 555.836 467.021 556.188 466.648C556.551 466.275 556.732 465.789 556.732 465.192C556.732 464.595 556.556 464.12 556.204 463.768C555.852 463.405 555.282 463.224 554.492 463.224H552.444V467.208Z" fill="#868E96"/>
<path d="M348.288 473V463.72L346.48 464.136V462.888L348.96 461.8H350.048V473H348.288ZM357.764 473.192C356.75 473.192 355.876 472.952 355.14 472.472C354.414 471.981 353.854 471.304 353.46 470.44C353.076 469.565 352.884 468.552 352.884 467.4C352.884 466.248 353.076 465.24 353.46 464.376C353.854 463.501 354.414 462.824 355.14 462.344C355.876 461.853 356.75 461.608 357.764 461.608C358.777 461.608 359.646 461.853 360.372 462.344C361.097 462.824 361.652 463.501 362.036 464.376C362.43 465.24 362.628 466.248 362.628 467.4C362.628 468.552 362.43 469.565 362.036 470.44C361.652 471.304 361.097 471.981 360.372 472.472C359.646 472.952 358.777 473.192 357.764 473.192ZM357.764 471.672C358.372 471.672 358.91 471.501 359.38 471.16C359.86 470.819 360.233 470.328 360.5 469.688C360.766 469.048 360.9 468.285 360.9 467.4C360.9 466.515 360.766 465.752 360.5 465.112C360.233 464.472 359.86 463.981 359.38 463.64C358.91 463.299 358.372 463.128 357.764 463.128C357.145 463.128 356.601 463.299 356.132 463.64C355.662 463.981 355.294 464.472 355.028 465.112C354.761 465.752 354.628 466.515 354.628 467.4C354.628 468.285 354.761 469.048 355.028 469.688C355.294 470.328 355.662 470.819 356.132 471.16C356.601 471.501 357.145 471.672 357.764 471.672ZM369.749 473L373.877 461.8H375.733L379.829 473H378.037L377.077 470.264H372.501L371.541 473H369.749ZM372.981 468.92H376.597L374.789 463.816L372.981 468.92ZM382.351 473V461.8H386.271C387.146 461.8 387.871 461.949 388.447 462.248C389.023 462.536 389.45 462.936 389.727 463.448C390.015 463.949 390.159 464.52 390.159 465.16C390.159 465.768 390.02 466.328 389.743 466.84C389.476 467.341 389.055 467.741 388.479 468.04C387.903 468.339 387.167 468.488 386.271 468.488H384.047V473H382.351ZM384.047 467.096H386.191C386.991 467.096 387.562 466.925 387.903 466.584C388.255 466.232 388.431 465.757 388.431 465.16C388.431 464.541 388.255 464.061 387.903 463.72C387.562 463.368 386.991 463.192 386.191 463.192H384.047V467.096ZM392.795 473V461.8H396.651C397.537 461.8 398.262 461.949 398.827 462.248C399.403 462.547 399.83 462.952 400.107 463.464C400.385 463.965 400.523 464.525 400.523 465.144C400.523 465.837 400.337 466.467 399.963 467.032C399.601 467.597 399.03 468.003 398.251 468.248L400.635 473H398.667L396.491 468.488H394.491V473H392.795ZM394.491 467.208H396.555C397.323 467.208 397.883 467.021 398.235 466.648C398.598 466.275 398.779 465.789 398.779 465.192C398.779 464.595 398.603 464.12 398.251 463.768C397.899 463.405 397.329 463.224 396.539 463.224H394.491V467.208Z" fill="#868E96"/>
<path d="M670.288 473V463.72L668.48 464.136V462.888L670.96 461.8H672.048V473H670.288ZM675.06 473V471.784C675.785 471.208 676.478 470.627 677.14 470.04C677.801 469.453 678.388 468.877 678.9 468.312C679.422 467.736 679.833 467.176 680.132 466.632C680.43 466.077 680.58 465.544 680.58 465.032C680.58 464.691 680.521 464.371 680.404 464.072C680.286 463.763 680.094 463.517 679.828 463.336C679.561 463.144 679.204 463.048 678.756 463.048C678.084 463.048 677.577 463.261 677.236 463.688C676.905 464.115 676.745 464.627 676.756 465.224H675.108C675.118 464.435 675.284 463.773 675.604 463.24C675.934 462.707 676.372 462.301 676.916 462.024C677.47 461.747 678.094 461.608 678.788 461.608C679.844 461.608 680.686 461.907 681.316 462.504C681.956 463.091 682.276 463.912 682.276 464.968C682.276 465.597 682.121 466.221 681.812 466.84C681.513 467.459 681.118 468.056 680.628 468.632C680.148 469.197 679.63 469.731 679.076 470.232C678.521 470.733 677.993 471.187 677.492 471.592H682.612V473H675.06ZM689.671 473L693.799 461.8H695.655L699.751 473H697.959L696.999 470.264H692.423L691.463 473H689.671ZM692.903 468.92H696.519L694.711 463.816L692.903 468.92ZM702.273 473V461.8H706.193C707.068 461.8 707.793 461.949 708.369 462.248C708.945 462.536 709.372 462.936 709.649 463.448C709.937 463.949 710.081 464.52 710.081 465.16C710.081 465.768 709.942 466.328 709.665 466.84C709.398 467.341 708.977 467.741 708.401 468.04C707.825 468.339 707.089 468.488 706.193 468.488H703.969V473H702.273ZM703.969 467.096H706.113C706.913 467.096 707.484 466.925 707.825 466.584C708.177 466.232 708.353 465.757 708.353 465.16C708.353 464.541 708.177 464.061 707.825 463.72C707.484 463.368 706.913 463.192 706.113 463.192H703.969V467.096ZM712.717 473V461.8H716.573C717.459 461.8 718.184 461.949 718.749 462.248C719.325 462.547 719.752 462.952 720.029 463.464C720.307 463.965 720.445 464.525 720.445 465.144C720.445 465.837 720.259 466.467 719.885 467.032C719.523 467.597 718.952 468.003 718.173 468.248L720.557 473H718.589L716.413 468.488H714.413V473H712.717ZM714.413 467.208H716.477C717.245 467.208 717.805 467.021 718.157 466.648C718.52 466.275 718.701 465.789 718.701 465.192C718.701 464.595 718.525 464.12 718.173 463.768C717.821 463.405 717.251 463.224 716.461 463.224H714.413V467.208Z" fill="#868E96"/>
<path d="M832.288 473V463.72L830.48 464.136V462.888L832.96 461.8H834.048V473H832.288ZM840.868 473.192C840.142 473.192 839.481 473.064 838.884 472.808C838.297 472.541 837.828 472.141 837.476 471.608C837.124 471.075 836.937 470.408 836.916 469.608H838.596C838.617 470.205 838.82 470.712 839.204 471.128C839.598 471.533 840.153 471.736 840.868 471.736C841.55 471.736 842.073 471.549 842.436 471.176C842.798 470.792 842.98 470.317 842.98 469.752C842.98 469.069 842.734 468.563 842.244 468.232C841.764 467.901 841.172 467.736 840.468 467.736H839.636V466.328H840.484C841.113 466.328 841.62 466.179 842.004 465.88C842.398 465.581 842.596 465.16 842.596 464.616C842.596 464.157 842.441 463.784 842.132 463.496C841.833 463.208 841.406 463.064 840.852 463.064C840.276 463.064 839.822 463.235 839.492 463.576C839.161 463.907 838.98 464.323 838.948 464.824H837.268C837.289 464.173 837.449 463.608 837.748 463.128C838.057 462.648 838.478 462.275 839.012 462.008C839.545 461.741 840.158 461.608 840.852 461.608C841.598 461.608 842.222 461.741 842.724 462.008C843.236 462.264 843.62 462.616 843.876 463.064C844.142 463.501 844.276 463.981 844.276 464.504C844.276 465.101 844.11 465.624 843.78 466.072C843.449 466.52 843.006 466.819 842.452 466.968C843.092 467.107 843.62 467.421 844.036 467.912C844.452 468.392 844.66 469.016 844.66 469.784C844.66 470.403 844.516 470.973 844.227 471.496C843.94 472.008 843.513 472.419 842.948 472.728C842.382 473.037 841.689 473.192 840.868 473.192ZM851.983 473L856.111 461.8H857.967L862.063 473H860.271L859.311 470.264H854.735L853.775 473H851.983ZM855.215 468.92H858.831L857.023 463.816L855.215 468.92ZM864.585 473V461.8H868.505C869.38 461.8 870.105 461.949 870.681 462.248C871.257 462.536 871.684 462.936 871.961 463.448C872.249 463.949 872.393 464.52 872.393 465.16C872.393 465.768 872.255 466.328 871.977 466.84C871.711 467.341 871.289 467.741 870.713 468.04C870.137 468.339 869.401 468.488 868.505 468.488H866.281V473H864.585ZM866.281 467.096H868.425C869.225 467.096 869.796 466.925 870.137 466.584C870.489 466.232 870.665 465.757 870.665 465.16C870.665 464.541 870.489 464.061 870.137 463.72C869.796 463.368 869.225 463.192 868.425 463.192H866.281V467.096ZM875.03 473V461.8H878.886C879.771 461.8 880.496 461.949 881.062 462.248C881.638 462.547 882.064 462.952 882.342 463.464C882.619 463.965 882.758 464.525 882.758 465.144C882.758 465.837 882.571 466.467 882.198 467.032C881.835 467.597 881.264 468.003 880.486 468.248L882.87 473H880.902L878.726 468.488H876.726V473H875.03ZM876.726 467.208H878.79C879.558 467.208 880.118 467.021 880.47 466.648C880.832 466.275 881.014 465.789 881.014 465.192C881.014 464.595 880.838 464.12 880.486 463.768C880.134 463.405 879.563 463.224 878.774 463.224H876.726V467.208Z" fill="#868E96"/>
<path d="M994.288 473V463.72L992.48 464.136V462.888L994.96 461.8H996.048V473H994.288ZM1004.39 473V470.76H998.772V469.416L1004.12 461.8H1006.07V469.288H1007.64V470.76H1006.07V473H1004.39ZM1000.61 469.288H1004.48V463.672L1000.61 469.288ZM1014.48 473L1018.61 461.8H1020.47L1024.56 473H1022.77L1021.81 470.264H1017.24L1016.28 473H1014.48ZM1017.72 468.92H1021.33L1019.52 463.816L1017.72 468.92ZM1027.09 473V461.8H1031.01C1031.88 461.8 1032.61 461.949 1033.18 462.248C1033.76 462.536 1034.18 462.936 1034.46 463.448C1034.75 463.949 1034.89 464.52 1034.89 465.16C1034.89 465.768 1034.75 466.328 1034.48 466.84C1034.21 467.341 1033.79 467.741 1033.21 468.04C1032.64 468.339 1031.9 468.488 1031.01 468.488H1028.78V473H1027.09ZM1028.78 467.096H1030.93C1031.73 467.096 1032.3 466.925 1032.64 466.584C1032.99 466.232 1033.17 465.757 1033.17 465.16C1033.17 464.541 1032.99 464.061 1032.64 463.72C1032.3 463.368 1031.73 463.192 1030.93 463.192H1028.78V467.096ZM1037.53 473V461.8H1041.39C1042.27 461.8 1043 461.949 1043.56 462.248C1044.14 462.547 1044.56 462.952 1044.84 463.464C1045.12 463.965 1045.26 464.525 1045.26 465.144C1045.26 465.837 1045.07 466.467 1044.7 467.032C1044.34 467.597 1043.76 468.003 1042.99 468.248L1045.37 473H1043.4L1041.23 468.488H1039.23V473H1037.53ZM1039.23 467.208H1041.29C1042.06 467.208 1042.62 467.021 1042.97 466.648C1043.33 466.275 1043.51 465.789 1043.51 465.192C1043.51 464.595 1043.34 464.12 1042.99 463.768C1042.63 463.405 1042.06 463.224 1041.27 463.224H1039.23V467.208Z" fill="#868E96"/>
<path d="M666.943 242.294L666.943 444.575" stroke="#13C783" stroke-width="2.09264" stroke-dasharray="8.37 8.37"/>
<circle cx="666.609" cy="236.132" r="13.6022" fill="white" stroke="#13C783" stroke-width="2.09264"/>
<rect x="655" y="161" width="72" height="36" rx="4" fill="#D3E5FF" fill-opacity="0.2"/>
<path d="M664.716 175V167.728L663.36 168.028V167.332L665.052 166.6H665.736V175H664.716ZM667.737 175V174.292C668.305 173.844 668.841 173.392 669.345 172.936C669.857 172.472 670.309 172.016 670.701 171.568C671.101 171.12 671.413 170.68 671.637 170.248C671.869 169.816 671.985 169.4 671.985 169C671.985 168.704 671.933 168.428 671.829 168.172C671.733 167.916 671.573 167.712 671.349 167.56C671.125 167.4 670.821 167.32 670.437 167.32C670.069 167.32 669.761 167.404 669.513 167.572C669.265 167.732 669.077 167.948 668.949 168.22C668.829 168.492 668.769 168.784 668.769 169.096H667.797C667.797 168.544 667.913 168.072 668.145 167.68C668.377 167.28 668.693 166.976 669.093 166.768C669.493 166.56 669.945 166.456 670.449 166.456C671.193 166.456 671.801 166.668 672.273 167.092C672.753 167.508 672.993 168.132 672.993 168.964C672.993 169.46 672.869 169.952 672.621 170.44C672.373 170.92 672.057 171.388 671.673 171.844C671.289 172.292 670.877 172.712 670.437 173.104C670.005 173.496 669.601 173.848 669.225 174.16H673.281V175H667.737ZM678.104 175L681.2 166.6H682.268L685.352 175H684.284L683.516 172.84H679.94L679.16 175H678.104ZM680.24 172.024H683.216L681.728 167.872L680.24 172.024ZM686.961 175V166.6H689.721C690.377 166.6 690.917 166.708 691.341 166.924C691.765 167.14 692.077 167.432 692.277 167.8C692.485 168.168 692.589 168.584 692.589 169.048C692.589 169.504 692.489 169.916 692.289 170.284C692.089 170.652 691.777 170.948 691.353 171.172C690.929 171.388 690.385 171.496 689.721 171.496H687.969V175H686.961ZM687.969 170.644H689.697C690.369 170.644 690.845 170.504 691.125 170.224C691.413 169.936 691.557 169.544 691.557 169.048C691.557 168.544 691.413 168.152 691.125 167.872C690.845 167.584 690.369 167.44 689.697 167.44H687.969V170.644ZM694.27 175V166.6H696.982C697.638 166.6 698.174 166.708 698.59 166.924C699.006 167.14 699.314 167.436 699.514 167.812C699.714 168.188 699.814 168.604 699.814 169.06C699.814 169.588 699.67 170.064 699.382 170.488C699.102 170.912 698.662 171.212 698.062 171.388L699.898 175H698.71L697.006 171.532H696.934H695.278V175H694.27ZM695.278 170.74H696.91C697.558 170.74 698.03 170.584 698.326 170.272C698.622 169.96 698.77 169.56 698.77 169.072C698.77 168.576 698.622 168.184 698.326 167.896C698.038 167.6 697.562 167.452 696.898 167.452H695.278V170.74ZM701.251 169.276L701.947 166.6H703.075L701.971 169.276H701.251ZM704.526 175V174.292C705.094 173.844 705.63 173.392 706.134 172.936C706.646 172.472 707.098 172.016 707.49 171.568C707.89 171.12 708.202 170.68 708.426 170.248C708.658 169.816 708.774 169.4 708.774 169C708.774 168.704 708.722 168.428 708.618 168.172C708.522 167.916 708.362 167.712 708.138 167.56C707.914 167.4 707.61 167.32 707.226 167.32C706.858 167.32 706.55 167.404 706.302 167.572C706.054 167.732 705.866 167.948 705.738 168.22C705.618 168.492 705.558 168.784 705.558 169.096H704.586C704.586 168.544 704.702 168.072 704.934 167.68C705.166 167.28 705.482 166.976 705.882 166.768C706.282 166.56 706.734 166.456 707.238 166.456C707.982 166.456 708.59 166.668 709.062 167.092C709.542 167.508 709.782 168.132 709.782 168.964C709.782 169.46 709.658 169.952 709.41 170.44C709.162 170.92 708.846 171.388 708.462 171.844C708.078 172.292 707.666 172.712 707.226 173.104C706.794 173.496 706.39 173.848 706.014 174.16H710.07V175H704.526ZM715.49 175V173.2H711.23V172.42L715.31 166.6H716.486V172.312H717.734V173.2H716.486V175H715.49ZM712.346 172.312H715.538V167.716L712.346 172.312Z" fill="#343A40"/>
<path d="M669.788 192L666.764 186.72V186.016H667.116C667.681 186.016 668.156 185.963 668.54 185.856C668.935 185.749 669.244 185.573 669.468 185.328C669.692 185.083 669.825 184.747 669.868 184.32H666.764V183.296H669.852C669.777 182.901 669.628 182.581 669.404 182.336C669.18 182.08 668.876 181.893 668.492 181.776C668.119 181.659 667.66 181.6 667.116 181.6H666.764V180.576H673.388V181.6H670.364C670.609 181.803 670.812 182.043 670.972 182.32C671.132 182.597 671.233 182.923 671.276 183.296H673.388V184.32H671.308C671.233 185.099 670.935 185.707 670.412 186.144C669.9 186.571 669.217 186.843 668.364 186.96L671.42 192H669.788ZM676.736 192L681.072 182.256H675.248V180.8H682.816V182.032L678.512 192H676.736ZM682.854 193.888L683.782 190.112H685.462L683.99 193.888H682.854ZM692.392 192V189.76H686.776V188.416L692.12 180.8H694.072V188.288H695.64V189.76H694.072V192H692.392ZM688.616 188.288H692.488V182.672L688.616 188.288ZM702.521 192V189.76H696.905V188.416L702.249 180.8H704.201V188.288H705.769V189.76H704.201V192H702.521ZM698.745 188.288H702.617V182.672L698.745 188.288ZM711.449 192.192C710.66 192.192 709.977 192.053 709.401 191.776C708.825 191.488 708.367 191.099 708.025 190.608C707.695 190.107 707.492 189.541 707.417 188.912H709.081C709.188 189.445 709.455 189.888 709.881 190.24C710.308 190.581 710.836 190.752 711.465 190.752C711.935 190.752 712.34 190.64 712.681 190.416C713.023 190.181 713.289 189.872 713.481 189.488C713.673 189.104 713.769 188.672 713.769 188.192C713.769 187.435 713.556 186.832 713.129 186.384C712.703 185.925 712.164 185.696 711.513 185.696C710.959 185.696 710.484 185.829 710.089 186.096C709.695 186.352 709.407 186.677 709.225 187.072H707.609L708.569 180.8H714.617V182.288H709.849L709.273 185.28C709.519 185.003 709.855 184.773 710.281 184.592C710.719 184.4 711.209 184.304 711.753 184.304C712.511 184.304 713.161 184.48 713.705 184.832C714.249 185.173 714.665 185.637 714.953 186.224C715.252 186.811 715.401 187.461 715.401 188.176C715.401 188.923 715.241 189.6 714.921 190.208C714.601 190.816 714.143 191.301 713.545 191.664C712.959 192.016 712.26 192.192 711.449 192.192Z" fill="#4E93FB"/>
<rect x="33" y="504.073" width="64.3221" height="40.9885" rx="8.32948" fill="#0B1625"/>
<path d="M58.7783 530.567H56.9345V523.216C56.9345 522.971 56.9371 522.726 56.9423 522.481C56.9475 522.237 56.9527 521.997 56.9579 521.763C56.9684 521.528 56.9814 521.304 56.997 521.091C56.8876 521.211 56.7522 521.341 56.5908 521.481C56.4345 521.622 56.2678 521.768 56.0908 521.919L54.7783 522.966L53.8564 521.802L57.247 519.146H58.7783V530.567ZM76.8251 519.146L73.8408 530.567H71.7939L69.8876 523.724C69.8408 523.557 69.7887 523.359 69.7314 523.13C69.6741 522.901 69.6168 522.666 69.5595 522.427C69.5074 522.187 69.4606 521.968 69.4189 521.771C69.3824 521.567 69.3564 521.411 69.3408 521.302C69.3303 521.411 69.3069 521.565 69.2704 521.763C69.234 521.961 69.1897 522.179 69.1376 522.419C69.0908 522.653 69.0387 522.888 68.9814 523.122C68.9241 523.351 68.872 523.554 68.8251 523.731L66.9501 530.567H64.9111L61.9345 519.146H63.8173L65.4658 525.841C65.5178 526.054 65.5699 526.286 65.622 526.536C65.6793 526.781 65.7314 527.028 65.7783 527.278C65.8303 527.528 65.8772 527.773 65.9189 528.013C65.9606 528.247 65.9944 528.461 66.0204 528.653C66.0465 528.455 66.0803 528.237 66.122 527.997C66.1637 527.752 66.2079 527.505 66.2548 527.255C66.3069 527 66.359 526.755 66.4111 526.521C66.4684 526.286 66.5257 526.075 66.5829 525.888L68.4423 519.146H70.2704L72.1689 525.911C72.2262 526.104 72.2809 526.32 72.3329 526.56C72.3902 526.799 72.4449 527.044 72.497 527.294C72.5491 527.544 72.596 527.786 72.6376 528.021C72.6793 528.255 72.7132 528.466 72.7392 528.653C72.7757 528.398 72.8225 528.106 72.8798 527.778C72.9371 527.45 73.0022 527.117 73.0751 526.778C73.1481 526.44 73.221 526.127 73.2939 525.841L74.9345 519.146H76.8251Z" fill="white"/>
<rect x="113.322" y="504.073" width="64.3221" height="40.9885" rx="8.32948" fill="#0B1625" fill-opacity="0.05"/>
<path d="M139.601 530.567H137.757V523.216C137.757 522.971 137.759 522.726 137.765 522.481C137.77 522.237 137.775 521.997 137.78 521.763C137.791 521.528 137.804 521.304 137.819 521.091C137.71 521.211 137.574 521.341 137.413 521.481C137.257 521.622 137.09 521.768 136.913 521.919L135.601 522.966L134.679 521.802L138.069 519.146H139.601V530.567ZM149.069 530.567L145.78 521.028H145.71C145.726 521.242 145.744 521.534 145.765 521.903C145.785 522.273 145.804 522.669 145.819 523.091C145.835 523.513 145.843 523.916 145.843 524.302V530.567H144.14V519.146H146.772L149.936 528.263H149.983L153.257 519.146H155.882V530.567H154.093V524.208C154.093 523.859 154.098 523.481 154.108 523.075C154.124 522.669 154.14 522.284 154.155 521.919C154.176 521.554 154.192 521.263 154.202 521.044H154.14L150.726 530.567H149.069Z" fill="#0B1625"/>
<rect x="193.645" y="504.073" width="64.3221" height="40.9885" rx="8.32948" fill="#0B1625" fill-opacity="0.05"/>
<path d="M214.54 525.7C214.54 525.028 214.587 524.367 214.681 523.716C214.78 523.065 214.946 522.455 215.181 521.888C215.415 521.32 215.738 520.82 216.149 520.388C216.566 519.955 217.089 519.617 217.72 519.372C218.35 519.122 219.108 518.997 219.993 518.997C220.222 518.997 220.48 519.007 220.767 519.028C221.053 519.049 221.29 519.083 221.477 519.13V520.653C221.274 520.596 221.05 520.552 220.806 520.521C220.566 520.489 220.326 520.474 220.087 520.474C219.129 520.474 218.381 520.656 217.845 521.021C217.308 521.38 216.925 521.875 216.696 522.505C216.467 523.13 216.334 523.846 216.298 524.653H216.392C216.548 524.393 216.743 524.161 216.977 523.958C217.212 523.755 217.498 523.593 217.837 523.474C218.175 523.349 218.569 523.286 219.017 523.286C219.683 523.286 220.264 523.427 220.759 523.708C221.254 523.984 221.634 524.385 221.899 524.911C222.17 525.437 222.306 526.075 222.306 526.825C222.306 527.632 222.152 528.328 221.845 528.911C221.543 529.494 221.11 529.942 220.548 530.255C219.99 530.567 219.326 530.724 218.556 530.724C217.988 530.724 217.459 530.619 216.97 530.411C216.485 530.203 216.061 529.89 215.696 529.474C215.332 529.057 215.048 528.536 214.845 527.911C214.642 527.281 214.54 526.544 214.54 525.7ZM218.524 529.208C219.118 529.208 219.595 529.015 219.954 528.63C220.319 528.239 220.501 527.643 220.501 526.841C220.501 526.19 220.339 525.674 220.017 525.294C219.699 524.914 219.22 524.724 218.579 524.724C218.142 524.724 217.759 524.817 217.431 525.005C217.102 525.192 216.847 525.429 216.665 525.716C216.488 526.002 216.399 526.294 216.399 526.591C216.399 526.893 216.444 527.198 216.532 527.505C216.621 527.812 216.754 528.096 216.931 528.356C217.108 528.612 217.329 528.817 217.595 528.974C217.86 529.13 218.17 529.208 218.524 529.208ZM229.392 530.567L226.102 521.028H226.032C226.048 521.242 226.066 521.534 226.087 521.903C226.108 522.273 226.126 522.669 226.142 523.091C226.157 523.513 226.165 523.916 226.165 524.302V530.567H224.462V519.146H227.095L230.259 528.263H230.306L233.579 519.146H236.204V530.567H234.415V524.208C234.415 523.859 234.42 523.481 234.431 523.075C234.446 522.669 234.462 522.284 234.477 521.919C234.498 521.554 234.514 521.263 234.524 521.044H234.462L231.048 530.567H229.392Z" fill="#0B1625"/>
<rect x="273.967" y="504.073" width="64.3221" height="40.9885" rx="8.32948" fill="#0B1625" fill-opacity="0.05"/>
<path d="M302.745 530.567H300.901V523.216C300.901 522.971 300.904 522.726 300.909 522.481C300.914 522.237 300.92 521.997 300.925 521.763C300.935 521.528 300.948 521.304 300.964 521.091C300.854 521.211 300.719 521.341 300.558 521.481C300.401 521.622 300.235 521.768 300.058 521.919L298.745 522.966L297.823 521.802L301.214 519.146H302.745V530.567ZM310.518 524.356L313.229 519.146H315.253L311.456 526.13V530.567H309.589V526.2L305.784 519.146H307.823L310.518 524.356Z" fill="#0B1625"/>
<rect x="354.289" y="504.073" width="64.3221" height="40.9885" rx="8.32948" fill="#0B1625" fill-opacity="0.05"/>
<path d="M382.466 521.755C382.466 522.271 382.362 522.718 382.153 523.099C381.945 523.479 381.658 523.791 381.294 524.036C380.935 524.276 380.518 524.448 380.044 524.552V524.606C380.955 524.721 381.643 525.007 382.106 525.466C382.575 525.924 382.81 526.531 382.81 527.286C382.81 527.948 382.651 528.539 382.333 529.06C382.015 529.575 381.528 529.981 380.872 530.278C380.216 530.575 379.372 530.724 378.341 530.724C377.721 530.724 377.145 530.674 376.614 530.575C376.088 530.476 375.588 530.317 375.114 530.099V528.466C375.599 528.705 376.114 528.89 376.661 529.021C377.208 529.151 377.726 529.216 378.216 529.216C379.169 529.216 379.849 529.039 380.255 528.685C380.661 528.325 380.864 527.83 380.864 527.2C380.864 526.794 380.757 526.461 380.544 526.2C380.336 525.94 380.01 525.744 379.567 525.614C379.13 525.484 378.565 525.419 377.872 525.419H376.864V523.942H377.88C378.541 523.942 379.073 523.864 379.474 523.708C379.875 523.547 380.164 523.325 380.341 523.044C380.523 522.763 380.614 522.435 380.614 522.06C380.614 521.57 380.455 521.19 380.138 520.919C379.82 520.643 379.349 520.505 378.724 520.505C378.338 520.505 377.987 520.549 377.669 520.638C377.356 520.726 377.067 520.838 376.802 520.974C376.536 521.109 376.283 521.255 376.044 521.411L375.161 520.138C375.593 519.815 376.109 519.541 376.708 519.317C377.307 519.093 378.005 518.981 378.802 518.981C379.974 518.981 380.877 519.234 381.513 519.739C382.148 520.239 382.466 520.911 382.466 521.755ZM390.036 530.567L386.747 521.028H386.677C386.692 521.242 386.711 521.534 386.731 521.903C386.752 522.273 386.77 522.669 386.786 523.091C386.802 523.513 386.81 523.916 386.81 524.302V530.567H385.106V519.146H387.739L390.903 528.263H390.95L394.224 519.146H396.849V530.567H395.06V524.208C395.06 523.859 395.065 523.481 395.075 523.075C395.091 522.669 395.106 522.284 395.122 521.919C395.143 521.554 395.158 521.263 395.169 521.044H395.106L391.692 530.567H390.036Z" fill="#0B1625"/>
<rect x="434.611" y="504.073" width="64.3221" height="40.9885" rx="8.32948" fill="#0B1625" fill-opacity="0.05"/>
<path d="M456.702 530.567L453.413 521.028H453.343C453.358 521.242 453.377 521.534 453.397 521.903C453.418 522.273 453.436 522.669 453.452 523.091C453.468 523.513 453.476 523.916 453.476 524.302V530.567H451.772V519.146H454.405L457.569 528.263H457.616L460.89 519.146H463.515V530.567H461.726V524.208C461.726 523.859 461.731 523.481 461.741 523.075C461.757 522.669 461.772 522.284 461.788 521.919C461.809 521.554 461.824 521.263 461.835 521.044H461.772L458.358 530.567H456.702ZM469.726 521.755C470.819 521.755 471.645 521.997 472.202 522.481C472.765 522.966 473.046 523.721 473.046 524.747V530.567H471.741L471.39 529.341H471.327C471.082 529.653 470.83 529.911 470.569 530.114C470.309 530.317 470.007 530.468 469.663 530.567C469.324 530.672 468.91 530.724 468.421 530.724C467.905 530.724 467.444 530.63 467.038 530.442C466.632 530.25 466.311 529.958 466.077 529.567C465.843 529.177 465.726 528.682 465.726 528.083C465.726 527.192 466.056 526.523 466.718 526.075C467.384 525.627 468.39 525.38 469.733 525.333L471.233 525.278V524.825C471.233 524.226 471.093 523.799 470.811 523.544C470.535 523.289 470.145 523.161 469.64 523.161C469.207 523.161 468.788 523.224 468.382 523.349C467.976 523.474 467.58 523.627 467.194 523.81L466.601 522.513C467.022 522.289 467.502 522.106 468.038 521.966C468.58 521.825 469.142 521.755 469.726 521.755ZM471.226 526.435L470.108 526.474C469.192 526.505 468.548 526.661 468.179 526.942C467.809 527.224 467.624 527.609 467.624 528.099C467.624 528.526 467.752 528.838 468.007 529.036C468.262 529.229 468.598 529.325 469.015 529.325C469.65 529.325 470.176 529.146 470.593 528.786C471.015 528.422 471.226 527.888 471.226 527.185V526.435ZM477.53 526.146L474.64 521.919H476.733L478.71 524.958L480.694 521.919H482.78L479.874 526.146L482.929 530.567H480.827L478.71 527.325L476.585 530.567H474.499L477.53 526.146Z" fill="#0B1625"/>
<rect x="982.717" y="504.041" width="64.284" height="40" rx="8.32948" fill="#0B1625" fill-opacity="0.05"/>
<path d="M1023.7 532.907V527.604H1025.46V534.675H1018.39V532.907H1023.7ZM1018.39 513.462H1025.46V520.533H1023.7V515.23H1018.39V513.462ZM1004.25 520.533V513.462H1011.32V515.23H1006.02V520.533H1004.25ZM1006.02 527.604V532.907H1011.32V534.675H1004.25V527.604H1006.02Z" fill="black"/>
<rect x="1" y="34" width="276" height="36" fill="url(#paint2_linear_1_581)"/>
<path d="M26.632 60V43.2H29.704V50.184H37.24V43.2H40.312V60H37.24V52.68H29.704V60H26.632ZM45.4013 46.248C44.8413 46.248 44.3773 46.08 44.0093 45.744C43.6573 45.408 43.4813 44.984 43.4813 44.472C43.4813 43.96 43.6573 43.544 44.0093 43.224C44.3773 42.888 44.8413 42.72 45.4013 42.72C45.9613 42.72 46.4173 42.888 46.7693 43.224C47.1373 43.544 47.3213 43.96 47.3213 44.472C47.3213 44.984 47.1373 45.408 46.7693 45.744C46.4173 46.08 45.9613 46.248 45.4013 46.248ZM43.8653 60V48.096H46.9373V60H43.8653ZM55.3037 60.288C54.2477 60.288 53.3197 60.12 52.5197 59.784C51.7197 59.432 51.0797 58.952 50.5997 58.344C50.1197 57.736 49.8317 57.032 49.7357 56.232H52.8317C52.9277 56.696 53.1837 57.096 53.5997 57.432C54.0317 57.752 54.5837 57.912 55.2557 57.912C55.9277 57.912 56.4157 57.776 56.7198 57.504C57.0397 57.232 57.1997 56.92 57.1997 56.568C57.1997 56.056 56.9757 55.712 56.5277 55.536C56.0797 55.344 55.4557 55.16 54.6557 54.984C54.1437 54.872 53.6237 54.736 53.0957 54.576C52.5677 54.416 52.0797 54.216 51.6317 53.976C51.1997 53.72 50.8477 53.4 50.5757 53.016C50.3037 52.616 50.1677 52.128 50.1677 51.552C50.1677 50.496 50.5837 49.608 51.4157 48.888C52.2637 48.168 53.4477 47.808 54.9677 47.808C56.3757 47.808 57.4957 48.136 58.3278 48.792C59.1758 49.448 59.6798 50.352 59.8398 51.504H56.9358C56.7598 50.624 56.0958 50.184 54.9438 50.184C54.3677 50.184 53.9197 50.296 53.5997 50.52C53.2957 50.744 53.1437 51.024 53.1437 51.36C53.1437 51.712 53.3757 51.992 53.8397 52.2C54.3037 52.408 54.9197 52.6 55.6877 52.776C56.5198 52.968 57.2798 53.184 57.9677 53.424C58.6717 53.648 59.2318 53.992 59.6478 54.456C60.0638 54.904 60.2718 55.552 60.2718 56.4C60.2878 57.136 60.0957 57.8 59.6957 58.392C59.2958 58.984 58.7198 59.448 57.9677 59.784C57.2157 60.12 56.3277 60.288 55.3037 60.288ZM68.1621 60C66.9141 60 65.9141 59.696 65.1621 59.088C64.4101 58.48 64.0341 57.4 64.0341 55.848V50.664H61.9941V48.096H64.0341L64.3941 44.904H67.1061V48.096H70.3221V50.664H67.1061V55.872C67.1061 56.448 67.2261 56.848 67.4661 57.072C67.7221 57.28 68.1541 57.384 68.7621 57.384H70.2501V60H68.1621ZM78.607 60.288C77.455 60.288 76.415 60.024 75.487 59.496C74.575 58.968 73.847 58.24 73.303 57.312C72.775 56.368 72.511 55.28 72.511 54.048C72.511 52.816 72.783 51.736 73.327 50.808C73.871 49.864 74.599 49.128 75.511 48.6C76.439 48.072 77.479 47.808 78.631 47.808C79.767 47.808 80.791 48.072 81.703 48.6C82.631 49.128 83.359 49.864 83.887 50.808C84.431 51.736 84.703 52.816 84.703 54.048C84.703 55.28 84.431 56.368 83.887 57.312C83.359 58.24 82.631 58.968 81.703 59.496C80.775 60.024 79.743 60.288 78.607 60.288ZM78.607 57.624C79.407 57.624 80.103 57.328 80.695 56.736C81.287 56.128 81.583 55.232 81.583 54.048C81.583 52.864 81.287 51.976 80.695 51.384C80.103 50.776 79.415 50.472 78.631 50.472C77.815 50.472 77.111 50.776 76.519 51.384C75.943 51.976 75.655 52.864 75.655 54.048C75.655 55.232 75.943 56.128 76.519 56.736C77.111 57.328 77.807 57.624 78.607 57.624ZM87.6897 60V48.096H90.4257L90.7137 50.328C91.1457 49.56 91.7297 48.952 92.4657 48.504C93.2177 48.04 94.0977 47.808 95.1057 47.808V51.048H94.2417C93.5697 51.048 92.9697 51.152 92.4417 51.36C91.9137 51.568 91.4977 51.928 91.1937 52.44C90.9057 52.952 90.7617 53.664 90.7617 54.576V60H87.6897ZM99.1013 46.248C98.5413 46.248 98.0773 46.08 97.7093 45.744C97.3573 45.408 97.1813 44.984 97.1813 44.472C97.1813 43.96 97.3573 43.544 97.7093 43.224C98.0773 42.888 98.5413 42.72 99.1013 42.72C99.6613 42.72 100.117 42.888 100.469 43.224C100.837 43.544 101.021 43.96 101.021 44.472C101.021 44.984 100.837 45.408 100.469 45.744C100.117 46.08 99.6613 46.248 99.1013 46.248ZM97.5653 60V48.096H100.637V60H97.5653ZM109.916 60.288C108.7 60.288 107.628 60.024 106.7 59.496C105.772 58.968 105.036 58.232 104.492 57.288C103.964 56.344 103.7 55.264 103.7 54.048C103.7 52.832 103.964 51.752 104.492 50.808C105.036 49.864 105.772 49.128 106.7 48.6C107.628 48.072 108.7 47.808 109.916 47.808C111.436 47.808 112.716 48.208 113.756 49.008C114.796 49.792 115.46 50.88 115.748 52.272H112.508C112.348 51.696 112.028 51.248 111.548 50.928C111.084 50.592 110.532 50.424 109.892 50.424C109.044 50.424 108.324 50.744 107.732 51.384C107.14 52.024 106.844 52.912 106.844 54.048C106.844 55.184 107.14 56.072 107.732 56.712C108.324 57.352 109.044 57.672 109.892 57.672C110.532 57.672 111.084 57.512 111.548 57.192C112.028 56.872 112.348 56.416 112.508 55.824H115.748C115.46 57.168 114.796 58.248 113.756 59.064C112.716 59.88 111.436 60.288 109.916 60.288ZM122.818 60.288C121.794 60.288 120.954 60.128 120.298 59.808C119.642 59.472 119.154 59.032 118.834 58.488C118.514 57.944 118.354 57.344 118.354 56.688C118.354 55.584 118.786 54.688 119.65 54C120.514 53.312 121.81 52.968 123.538 52.968H126.562V52.68C126.562 51.864 126.33 51.264 125.866 50.88C125.402 50.496 124.826 50.304 124.138 50.304C123.514 50.304 122.97 50.456 122.506 50.76C122.042 51.048 121.754 51.48 121.642 52.056H118.642C118.722 51.192 119.01 50.44 119.506 49.8C120.018 49.16 120.674 48.672 121.474 48.336C122.274 47.984 123.17 47.808 124.162 47.808C125.858 47.808 127.194 48.232 128.17 49.08C129.146 49.928 129.634 51.128 129.634 52.68V60H127.018L126.73 58.08C126.378 58.72 125.882 59.248 125.242 59.664C124.618 60.08 123.81 60.288 122.818 60.288ZM123.514 57.888C124.394 57.888 125.074 57.6 125.554 57.024C126.05 56.448 126.362 55.736 126.49 54.888H123.874C123.058 54.888 122.474 55.04 122.122 55.344C121.77 55.632 121.594 55.992 121.594 56.424C121.594 56.888 121.77 57.248 122.122 57.504C122.474 57.76 122.938 57.888 123.514 57.888ZM132.806 60V42.72H135.878V60H132.806ZM152.632 60.288C151.048 60.288 149.664 59.928 148.48 59.208C147.296 58.488 146.376 57.488 145.72 56.208C145.064 54.912 144.736 53.408 144.736 51.696C144.736 49.968 145.072 48.448 145.744 47.136C146.432 45.808 147.4 44.776 148.648 44.04C149.912 43.288 151.408 42.912 153.136 42.912C155.104 42.912 156.736 43.384 158.032 44.328C159.328 45.272 160.168 46.576 160.552 48.24H157.12C156.864 47.456 156.4 46.848 155.728 46.416C155.056 45.968 154.192 45.744 153.136 45.744C151.456 45.744 150.16 46.28 149.248 47.352C148.336 48.408 147.88 49.864 147.88 51.72C147.88 53.576 148.328 55.016 149.224 56.04C150.136 57.048 151.368 57.552 152.92 57.552C154.44 57.552 155.584 57.144 156.352 56.328C157.136 55.496 157.608 54.408 157.768 53.064H153.52V50.76H160.864V60H158.032L157.792 57.792C157.248 58.592 156.568 59.208 155.752 59.64C154.936 60.072 153.896 60.288 152.632 60.288ZM169.73 60.288C168.578 60.288 167.538 60.024 166.61 59.496C165.698 58.968 164.97 58.24 164.426 57.312C163.898 56.368 163.634 55.28 163.634 54.048C163.634 52.816 163.906 51.736 164.45 50.808C164.994 49.864 165.722 49.128 166.634 48.6C167.562 48.072 168.602 47.808 169.754 47.808C170.89 47.808 171.914 48.072 172.826 48.6C173.754 49.128 174.482 49.864 175.01 50.808C175.554 51.736 175.826 52.816 175.826 54.048C175.826 55.28 175.554 56.368 175.01 57.312C174.482 58.24 173.754 58.968 172.826 59.496C171.898 60.024 170.866 60.288 169.73 60.288ZM169.73 57.624C170.53 57.624 171.226 57.328 171.818 56.736C172.41 56.128 172.706 55.232 172.706 54.048C172.706 52.864 172.41 51.976 171.818 51.384C171.226 50.776 170.538 50.472 169.754 50.472C168.938 50.472 168.234 50.776 167.642 51.384C167.066 51.976 166.778 52.864 166.778 54.048C166.778 55.232 167.066 56.128 167.642 56.736C168.234 57.328 168.93 57.624 169.73 57.624ZM178.813 60V42.72H181.885V60H178.813ZM190.736 60.288C189.616 60.288 188.616 60.016 187.736 59.472C186.856 58.928 186.16 58.184 185.648 57.24C185.136 56.296 184.88 55.224 184.88 54.024C184.88 52.824 185.136 51.76 185.648 50.832C186.16 49.888 186.856 49.152 187.736 48.624C188.616 48.08 189.616 47.808 190.736 47.808C191.632 47.808 192.416 47.976 193.088 48.312C193.76 48.648 194.304 49.12 194.72 49.728V42.72H197.792V60H195.056L194.72 58.296C194.336 58.824 193.824 59.288 193.184 59.688C192.56 60.088 191.744 60.288 190.736 60.288ZM191.384 57.6C192.376 57.6 193.184 57.272 193.808 56.616C194.448 55.944 194.768 55.088 194.768 54.048C194.768 53.008 194.448 52.16 193.808 51.504C193.184 50.832 192.376 50.496 191.384 50.496C190.408 50.496 189.6 50.824 188.96 51.48C188.32 52.136 188 52.984 188 54.024C188 55.064 188.32 55.92 188.96 56.592C189.6 57.264 190.408 57.6 191.384 57.6ZM207.191 60V43.2H213.407C214.751 43.2 215.863 43.424 216.743 43.872C217.623 44.32 218.279 44.936 218.711 45.72C219.143 46.504 219.359 47.384 219.359 48.36C219.359 49.288 219.151 50.144 218.735 50.928C218.319 51.696 217.671 52.32 216.791 52.8C215.911 53.264 214.783 53.496 213.407 53.496H210.263V60H207.191ZM210.263 51H213.215C214.287 51 215.055 50.768 215.519 50.304C215.999 49.824 216.239 49.176 216.239 48.36C216.239 47.528 215.999 46.88 215.519 46.416C215.055 45.936 214.287 45.696 213.215 45.696H210.263V51ZM221.937 60V48.096H224.673L224.961 50.328C225.393 49.56 225.977 48.952 226.713 48.504C227.465 48.04 228.345 47.808 229.353 47.808V51.048H228.489C227.817 51.048 227.217 51.152 226.689 51.36C226.161 51.568 225.745 51.928 225.441 52.44C225.153 52.952 225.009 53.664 225.009 54.576V60H221.937ZM233.349 46.248C232.789 46.248 232.325 46.08 231.957 45.744C231.605 45.408 231.429 44.984 231.429 44.472C231.429 43.96 231.605 43.544 231.957 43.224C232.325 42.888 232.789 42.72 233.349 42.72C233.909 42.72 234.365 42.888 234.717 43.224C235.085 43.544 235.269 43.96 235.269 44.472C235.269 44.984 235.085 45.408 234.717 45.744C234.365 46.08 233.909 46.248 233.349 46.248ZM231.813 60V48.096H234.885V60H231.813ZM244.163 60.288C242.947 60.288 241.875 60.024 240.947 59.496C240.019 58.968 239.283 58.232 238.739 57.288C238.211 56.344 237.947 55.264 237.947 54.048C237.947 52.832 238.211 51.752 238.739 50.808C239.283 49.864 240.019 49.128 240.947 48.6C241.875 48.072 242.947 47.808 244.163 47.808C245.683 47.808 246.963 48.208 248.003 49.008C249.043 49.792 249.707 50.88 249.995 52.272H246.755C246.595 51.696 246.275 51.248 245.795 50.928C245.331 50.592 244.779 50.424 244.139 50.424C243.291 50.424 242.571 50.744 241.979 51.384C241.387 52.024 241.091 52.912 241.091 54.048C241.091 55.184 241.387 56.072 241.979 56.712C242.571 57.352 243.291 57.672 244.139 57.672C244.779 57.672 245.331 57.512 245.795 57.192C246.275 56.872 246.595 56.416 246.755 55.824H249.995C249.707 57.168 249.043 58.248 248.003 59.064C246.963 59.88 245.683 60.288 244.163 60.288ZM258.746 60.288C257.546 60.288 256.482 60.032 255.554 59.52C254.626 59.008 253.898 58.288 253.37 57.36C252.842 56.432 252.578 55.36 252.578 54.144C252.578 52.912 252.834 51.816 253.346 50.856C253.874 49.896 254.594 49.152 255.506 48.624C256.434 48.08 257.522 47.808 258.77 47.808C259.938 47.808 260.97 48.064 261.866 48.576C262.762 49.088 263.458 49.792 263.954 50.688C264.466 51.568 264.722 52.552 264.722 53.64C264.722 53.816 264.714 54 264.698 54.192C264.698 54.384 264.69 54.584 264.674 54.792H255.626C255.69 55.72 256.01 56.448 256.586 56.976C257.178 57.504 257.89 57.768 258.722 57.768C259.346 57.768 259.866 57.632 260.282 57.36C260.714 57.072 261.034 56.704 261.242 56.256H264.362C264.138 57.008 263.762 57.696 263.234 58.32C262.722 58.928 262.082 59.408 261.314 59.76C260.562 60.112 259.706 60.288 258.746 60.288ZM258.77 50.304C258.018 50.304 257.354 50.52 256.778 50.952C256.202 51.368 255.834 52.008 255.674 52.872H261.602C261.554 52.088 261.266 51.464 260.738 51C260.21 50.536 259.554 50.304 258.77 50.304Z" fill="#2B2B2B"/>
<path d="M1055 135.964H1055.14V135.825V50.6949C1055.14 41.3977 1047.6 33.8609 1038.31 33.8609H874.695C865.398 33.8609 857.861 41.3977 857.861 50.6949V119.13C857.861 128.427 865.398 135.964 874.695 135.964H1055Z" fill="#FDFDFD"/>
<path d="M1055 135.964H1055.14V135.825V50.6949C1055.14 41.3977 1047.6 33.8609 1038.31 33.8609H874.695C865.398 33.8609 857.861 41.3977 857.861 50.6949V119.13C857.861 128.427 865.398 135.964 874.695 135.964H1055Z" stroke="#E4E4E4" stroke-width="0.278249"/>
<path d="M873.782 76.2462V73.4726H879.672V67.9566H882.539V73.4726H888.429V76.2462H882.539V81.7933H879.672V76.2462H873.782ZM892.071 83.9125V81.544C893.483 80.4221 894.834 79.2898 896.122 78.1472C897.41 77.0045 898.553 75.8826 899.55 74.7815C900.568 73.6596 901.368 72.5688 901.949 71.5093C902.531 70.4289 902.822 69.3901 902.822 68.3929C902.822 67.7281 902.708 67.1048 902.479 66.5231C902.251 65.9206 901.877 65.4427 901.357 65.0895C900.838 64.7155 900.142 64.5286 899.269 64.5286C897.961 64.5286 896.974 64.9441 896.309 65.7751C895.665 66.6062 895.353 67.6034 895.374 68.7668H892.164C892.185 67.2294 892.507 65.9413 893.13 64.9025C893.774 63.8637 894.626 63.0743 895.686 62.5341C896.766 61.9939 897.981 61.7238 899.332 61.7238C901.389 61.7238 903.03 62.3055 904.256 63.469C905.502 64.6117 906.125 66.2114 906.125 68.2682C906.125 69.494 905.824 70.7094 905.222 71.9144C904.64 73.1194 903.871 74.2828 902.916 75.4047C901.981 76.5059 900.973 77.5447 899.893 78.5211C898.812 79.4976 897.784 80.3806 896.807 81.1701H906.78V83.9125H892.071ZM917.322 84.2864C915.909 84.2864 914.621 84.0371 913.457 83.5385C912.315 83.0191 911.4 82.24 910.715 81.2012C910.029 80.1624 909.666 78.8639 909.624 77.3057H912.896C912.938 78.4692 913.333 79.456 914.081 80.2663C914.849 81.0558 915.93 81.4505 917.322 81.4505C918.651 81.4505 919.669 81.087 920.376 80.3598C921.082 79.6119 921.435 78.6873 921.435 77.5862C921.435 76.2566 920.957 75.2697 920.002 74.6257C919.067 73.9816 917.914 73.6596 916.542 73.6596H914.922V70.9172H916.574C917.799 70.9172 918.786 70.6263 919.534 70.0446C920.303 69.4628 920.687 68.6422 920.687 67.5826C920.687 66.6893 920.386 65.9621 919.783 65.4012C919.202 64.8402 918.371 64.5597 917.29 64.5597C916.168 64.5597 915.286 64.8921 914.641 65.557C913.997 66.201 913.644 67.0113 913.582 67.9878H910.31C910.351 66.7204 910.663 65.6193 911.245 64.6844C911.847 63.7495 912.668 63.0223 913.707 62.5029C914.745 61.9835 915.94 61.7238 917.29 61.7238C918.745 61.7238 919.96 61.9835 920.937 62.5029C921.934 63.0015 922.682 63.6871 923.18 64.5597C923.7 65.4115 923.959 66.3465 923.959 67.3645C923.959 68.5279 923.637 69.5459 922.993 70.4185C922.349 71.2911 921.487 71.8728 920.407 72.1637C921.653 72.4338 922.682 73.0467 923.492 74.0024C924.302 74.9373 924.707 76.1527 924.707 77.6485C924.707 78.8535 924.427 79.9651 923.866 80.9831C923.305 81.9803 922.474 82.7802 921.373 83.3827C920.272 83.9852 918.921 84.2864 917.322 84.2864ZM929.968 84.0995C929.344 84.0995 928.825 83.9021 928.41 83.5073C928.015 83.0918 927.817 82.6036 927.817 82.0426C927.817 81.4609 928.015 80.9727 928.41 80.5779C928.825 80.1624 929.344 79.9547 929.968 79.9547C930.591 79.9547 931.1 80.1624 931.495 80.5779C931.889 80.9727 932.087 81.4609 932.087 82.0426C932.087 82.6036 931.889 83.0918 931.495 83.5073C931.1 83.9021 930.591 84.0995 929.968 84.0995ZM945.481 83.9125V79.5495H934.542V76.9318L944.951 62.0978H948.753V76.6825H951.807V79.5495H948.753V83.9125H945.481ZM938.126 76.6825H945.668V65.744L938.126 76.6825ZM961.937 84.2864C960.524 84.2864 959.236 84.0371 958.073 83.5385C956.93 83.0191 956.016 82.24 955.33 81.2012C954.645 80.1624 954.281 78.8639 954.239 77.3057H957.512C957.553 78.4692 957.948 79.456 958.696 80.2663C959.465 81.0558 960.545 81.4505 961.937 81.4505C963.267 81.4505 964.285 81.087 964.991 80.3598C965.697 79.6119 966.051 78.6873 966.051 77.5862C966.051 76.2566 965.573 75.2697 964.617 74.6257C963.682 73.9816 962.529 73.6596 961.158 73.6596H959.537V70.9172H961.189C962.415 70.9172 963.402 70.6263 964.15 70.0446C964.918 69.4628 965.303 68.6422 965.303 67.5826C965.303 66.6893 965.001 65.9621 964.399 65.4012C963.817 64.8402 962.986 64.5597 961.906 64.5597C960.784 64.5597 959.901 64.8921 959.257 65.557C958.613 66.201 958.26 67.0113 958.197 67.9878H954.925C954.967 66.7204 955.278 65.6193 955.86 64.6844C956.463 63.7495 957.283 63.0223 958.322 62.5029C959.361 61.9835 960.555 61.7238 961.906 61.7238C963.36 61.7238 964.576 61.9835 965.552 62.5029C966.549 63.0015 967.297 63.6871 967.796 64.5597C968.315 65.4115 968.575 66.3465 968.575 67.3645C968.575 68.5279 968.253 69.5459 967.609 70.4185C966.965 71.2911 966.103 71.8728 965.022 72.1637C966.269 72.4338 967.297 73.0467 968.107 74.0024C968.918 74.9373 969.323 76.1527 969.323 77.6485C969.323 78.8535 969.042 79.9651 968.481 80.9831C967.92 81.9803 967.089 82.7802 965.988 83.3827C964.887 83.9852 963.537 84.2864 961.937 84.2864ZM977.21 72.5065C976.234 72.5065 975.351 72.2884 974.561 71.8521C973.793 71.4158 973.18 70.8029 972.723 70.0134C972.266 69.2031 972.037 68.2371 972.037 67.1152C972.037 66.014 972.266 65.0687 972.723 64.2793C973.18 63.469 973.803 62.8457 974.593 62.4094C975.382 61.9731 976.265 61.755 977.242 61.755C978.197 61.755 979.059 61.9731 979.828 62.4094C980.618 62.8457 981.241 63.469 981.698 64.2793C982.155 65.0687 982.384 66.014 982.384 67.1152C982.384 68.2371 982.155 69.2031 981.698 70.0134C981.241 70.8029 980.618 71.4158 979.828 71.8521C979.059 72.2884 978.187 72.5065 977.21 72.5065ZM975.652 83.9125L988.149 62.0978H991.39L978.924 83.9125H975.652ZM977.21 70.1381C977.875 70.1381 978.447 69.8887 978.924 69.3901C979.423 68.8707 979.672 68.1124 979.672 67.1152C979.672 66.1179 979.433 65.37 978.956 64.8714C978.478 64.352 977.896 64.0923 977.21 64.0923C976.546 64.0923 975.964 64.352 975.465 64.8714C974.967 65.37 974.717 66.1179 974.717 67.1152C974.717 68.1124 974.956 68.8707 975.434 69.3901C975.933 69.8887 976.525 70.1381 977.21 70.1381ZM990.019 84.2864C989.042 84.2864 988.159 84.0683 987.37 83.632C986.601 83.1957 985.988 82.5828 985.531 81.7933C985.074 80.9831 984.846 80.017 984.846 78.8951C984.846 77.794 985.074 76.8383 985.531 76.028C985.988 75.2178 986.612 74.5945 987.401 74.1582C988.19 73.7219 989.073 73.5038 990.05 73.5038C991.006 73.5038 991.868 73.7219 992.637 74.1582C993.426 74.5945 994.049 75.2178 994.506 76.028C994.963 76.8383 995.192 77.794 995.192 78.8951C995.192 80.017 994.963 80.9831 994.506 81.7933C994.049 82.5828 993.426 83.1957 992.637 83.632C991.868 84.0683 990.995 84.2864 990.019 84.2864ZM990.019 81.8868C990.684 81.8868 991.255 81.6375 991.733 81.1389C992.231 80.6403 992.481 79.8923 992.481 78.8951C992.481 77.8979 992.242 77.1499 991.764 76.6513C991.286 76.1319 990.704 75.8722 990.019 75.8722C989.354 75.8722 988.772 76.1319 988.274 76.6513C987.775 77.1499 987.526 77.8979 987.526 78.8951C987.526 79.8923 987.765 80.6403 988.242 81.1389C988.741 81.6375 989.333 81.8868 990.019 81.8868Z" fill="#13C783"/>
<path d="M873.822 114.912V107.166L872.313 107.513V106.472L874.383 105.563H875.291V114.912H873.822ZM882.733 114.926L880.209 105.563H881.731L883.588 113.31L885.725 105.563H887.287L889.358 113.31L891.214 105.563H892.737L890.172 114.912H888.516L886.473 107.58L884.362 114.912L882.733 114.926ZM894.169 114.912V105.563H900.113V106.712H895.585V109.624H899.712V110.745H895.585V113.764H900.113V114.912H894.169ZM901.933 114.912V105.563H907.876V106.712H903.349V109.624H907.476V110.745H903.349V113.764H907.876V114.912H901.933ZM909.696 114.912V105.563H911.112V109.57L914.798 105.563H916.548L913.089 109.29L916.628 114.912H914.905L912.074 110.371L911.112 111.413V114.912H909.696ZM921.493 114.912V105.563H924.766C925.496 105.563 926.101 105.688 926.582 105.937C927.063 106.178 927.419 106.512 927.651 106.939C927.891 107.357 928.011 107.834 928.011 108.368C928.011 108.876 927.895 109.343 927.664 109.77C927.441 110.189 927.09 110.523 926.609 110.772C926.128 111.021 925.514 111.146 924.766 111.146H922.909V114.912H921.493ZM922.909 109.984H924.699C925.367 109.984 925.843 109.842 926.128 109.557C926.422 109.263 926.569 108.867 926.569 108.368C926.569 107.852 926.422 107.451 926.128 107.166C925.843 106.872 925.367 106.725 924.699 106.725H922.909V109.984ZM929.544 114.912V105.563H935.487V106.712H930.96V109.624H935.087V110.745H930.96V113.764H935.487V114.912H929.544ZM937.308 114.912V105.563H940.527C941.266 105.563 941.871 105.688 942.343 105.937C942.824 106.187 943.18 106.525 943.411 106.952C943.643 107.371 943.759 107.838 943.759 108.355C943.759 108.933 943.603 109.459 943.291 109.931C942.988 110.403 942.512 110.741 941.862 110.946L943.852 114.912H942.209L940.393 111.146H938.723V114.912H937.308ZM938.723 110.078H940.446C941.087 110.078 941.555 109.922 941.849 109.61C942.152 109.299 942.303 108.893 942.303 108.395C942.303 107.896 942.156 107.5 941.862 107.206C941.568 106.903 941.092 106.752 940.433 106.752H938.723V110.078ZM945.567 114.912V105.563H951.43V106.712H946.983V109.664H950.669V110.799H946.983V114.912H945.567ZM957.266 115.073C956.34 115.073 955.53 114.868 954.836 114.458C954.141 114.049 953.598 113.483 953.206 112.762C952.814 112.032 952.619 111.191 952.619 110.238C952.619 109.285 952.814 108.448 953.206 107.727C953.598 106.997 954.141 106.427 954.836 106.017C955.53 105.608 956.34 105.403 957.266 105.403C958.192 105.403 959.003 105.608 959.697 106.017C960.392 106.427 960.93 106.997 961.313 107.727C961.705 108.448 961.901 109.285 961.901 110.238C961.901 111.191 961.705 112.032 961.313 112.762C960.93 113.483 960.392 114.049 959.697 114.458C959.003 114.868 958.192 115.073 957.266 115.073ZM957.266 113.804C957.908 113.804 958.464 113.661 958.936 113.377C959.417 113.092 959.791 112.682 960.058 112.148C960.325 111.614 960.458 110.977 960.458 110.238C960.458 109.499 960.325 108.862 960.058 108.328C959.791 107.794 959.417 107.384 958.936 107.099C958.464 106.814 957.908 106.672 957.266 106.672C956.625 106.672 956.064 106.814 955.584 107.099C955.103 107.384 954.729 107.794 954.462 108.328C954.203 108.862 954.074 109.499 954.074 110.238C954.074 110.977 954.203 111.614 954.462 112.148C954.729 112.682 955.103 113.092 955.584 113.377C956.064 113.661 956.625 113.804 957.266 113.804ZM963.612 114.912V105.563H966.83C967.569 105.563 968.175 105.688 968.647 105.937C969.128 106.187 969.484 106.525 969.715 106.952C969.947 107.371 970.063 107.838 970.063 108.355C970.063 108.933 969.907 109.459 969.595 109.931C969.292 110.403 968.816 110.741 968.166 110.946L970.156 114.912H968.513L966.697 111.146H965.027V114.912H963.612ZM965.027 110.078H966.75C967.391 110.078 967.859 109.922 968.153 109.61C968.455 109.299 968.607 108.893 968.607 108.395C968.607 107.896 968.46 107.5 968.166 107.206C967.872 106.903 967.396 106.752 966.737 106.752H965.027V110.078ZM971.871 114.912V105.563H973.54L976.706 111.787L979.858 105.563H981.527V114.912H980.112V108.007L977.253 113.577H976.158L973.287 108.021V114.912H971.871ZM982.959 114.912L986.405 105.563H987.955L991.374 114.912H989.878L989.076 112.629H985.257L984.455 114.912H982.959ZM985.657 111.507H988.676L987.167 107.246L985.657 111.507ZM992.811 114.912V105.563H994.227L998.915 112.602V105.563H1000.33V114.912H998.915L994.227 107.874V114.912H992.811ZM1006.53 115.073C1005.6 115.073 1004.8 114.872 1004.12 114.472C1003.46 114.062 1002.94 113.497 1002.58 112.776C1002.21 112.045 1002.03 111.204 1002.03 110.251C1002.03 109.29 1002.21 108.448 1002.58 107.727C1002.94 106.997 1003.46 106.427 1004.12 106.017C1004.8 105.608 1005.6 105.403 1006.53 105.403C1007.62 105.403 1008.52 105.67 1009.21 106.204C1009.91 106.739 1010.35 107.487 1010.54 108.448H1008.96C1008.83 107.905 1008.57 107.473 1008.16 107.153C1007.75 106.832 1007.2 106.672 1006.52 106.672C1005.58 106.672 1004.84 106.992 1004.3 107.633C1003.76 108.266 1003.48 109.138 1003.48 110.251C1003.48 111.355 1003.76 112.223 1004.3 112.856C1004.84 113.488 1005.58 113.804 1006.52 113.804C1007.2 113.804 1007.75 113.653 1008.16 113.35C1008.57 113.047 1008.83 112.633 1008.96 112.108H1010.54C1010.35 113.034 1009.91 113.759 1009.21 114.285C1008.52 114.81 1007.62 115.073 1006.53 115.073ZM1012.23 114.912V105.563H1018.17V106.712H1013.64V109.624H1017.77V110.745H1013.64V113.764H1018.17V114.912H1012.23Z" fill="#868E96"/>
</g>
<rect x="0.5" y="0.5" width="1079" height="578" rx="26.5" stroke="#E4E4E4"/>
<defs>
<linearGradient id="paint0_linear_1_581" x1="895.66" y1="215.359" x2="-3.20744" y2="494.551" gradientUnits="userSpaceOnUse">
<stop stop-color="#13C783"/>
<stop offset="1" stop-color="white" stop-opacity="0"/>
</linearGradient>
<linearGradient id="paint1_linear_1_581" x1="543.963" y1="140.148" x2="543.963" y2="464.559" gradientUnits="userSpaceOnUse">
<stop stop-color="#13C783"/>
<stop offset="1" stop-color="white"/>
</linearGradient>
<linearGradient id="paint2_linear_1_581" x1="62.6941" y1="52" x2="277" y2="52" gradientUnits="userSpaceOnUse">
<stop stop-color="#FDF3E7"/>
<stop offset="1" stop-color="white"/>
</linearGradient>
<clipPath id="clip0_1_581">
<rect x="1" y="1" width="1078" height="577" rx="26" fill="white"/>
</clipPath>
</defs>
</svg>
