<svg width="227" height="25" viewBox="0 0 227 25" fill="none" xmlns="http://www.w3.org/2000/svg">
<g clip-path="url(#clip0_1_721)">
<path d="M25.5781 0.00195376H7.59305C7.15721 0.00168422 6.72559 0.0872967 6.32285 0.253899C5.9201 0.420502 5.55414 0.664829 5.24586 0.97292C4.93757 1.28101 4.69302 1.64683 4.52617 2.04947C4.35932 2.45211 4.27344 2.88368 4.27344 3.31952V21.3045C4.27344 21.7404 4.35932 22.1719 4.52617 22.5746C4.69302 22.9772 4.93757 23.343 5.24586 23.6511C5.55414 23.9592 5.9201 24.2036 6.32285 24.3702C6.72559 24.5368 7.15721 24.6224 7.59305 24.6221H16.4635L16.4789 15.8245H14.1923C14.0495 15.8245 13.9126 15.7679 13.8115 15.6672C13.7103 15.5664 13.6532 15.4297 13.6527 15.287L13.6414 12.4505C13.6411 12.3795 13.6549 12.3091 13.6819 12.2434C13.7089 12.1777 13.7486 12.118 13.7987 12.0676C13.8489 12.0173 13.9084 11.9774 13.974 11.9501C14.0396 11.9229 14.11 11.9089 14.181 11.9089H16.4625V9.16988C16.4625 5.98978 18.4044 4.25816 21.2418 4.25816H23.5695C23.7126 4.25816 23.8498 4.31501 23.951 4.4162C24.0522 4.5174 24.1091 4.65464 24.1091 4.79775V7.18899C24.1091 7.33192 24.0524 7.46901 23.9514 7.57017C23.8504 7.67134 23.7134 7.72831 23.5705 7.72858H22.1415C20.6028 7.72858 20.295 8.46205 20.295 9.53713V11.9099H23.6803C23.7565 11.9099 23.8318 11.9261 23.9013 11.9574C23.9708 11.9887 24.0329 12.0343 24.0835 12.0913C24.134 12.1482 24.172 12.2153 24.1948 12.288C24.2176 12.3607 24.2247 12.4374 24.2158 12.5131L23.8793 15.3495C23.8637 15.4807 23.8006 15.6015 23.7019 15.6892C23.6033 15.777 23.4758 15.8254 23.3438 15.8255H20.3155L20.3001 24.6221H25.5781C26.4576 24.6216 27.3009 24.2718 27.9226 23.6497C28.5443 23.0276 28.8936 22.1841 28.8936 21.3045V3.31952C28.8936 2.44 28.5443 1.59648 27.9226 0.974371C27.3009 0.352266 26.4576 0.00249768 25.5781 0.00195376Z" fill="#1F1F1F"/>
</g>
<g clip-path="url(#clip1_1_721)">
<path d="M77.1433 7.24028C77.1234 6.21926 76.9299 5.20908 76.5709 4.25303C76.2539 3.43515 75.7697 2.6924 75.1494 2.07223C74.529 1.45206 73.7861 0.96811 72.9681 0.65131C72.0113 0.292539 71.0005 0.0989778 69.9789 0.0788911C68.6637 0.0163149 68.2452 0.00195312 64.903 0.00195312C61.5608 0.00195312 61.1412 0.0163149 59.8282 0.0737619C58.8075 0.0937988 57.7977 0.287368 56.8419 0.64618C56.0185 0.955198 55.2729 1.44127 54.6579 2.07005C54.033 2.68517 53.5489 3.42857 53.2392 4.24893C52.8808 5.20477 52.6872 6.21452 52.6668 7.23515C52.6042 8.55335 52.5898 8.97189 52.5898 12.312C52.5898 15.6522 52.6042 16.0728 52.6617 17.3858C52.6815 18.4069 52.8751 19.417 53.2341 20.3731C53.5509 21.1912 54.035 21.9342 54.6554 22.5545C55.2757 23.1749 56.0187 23.659 56.8368 23.9758C57.7925 24.3349 58.8023 24.5292 59.823 24.5503C61.1361 24.6077 61.5547 24.6221 64.8968 24.6221C68.239 24.6221 68.6576 24.6077 69.9706 24.5503C70.9913 24.5304 72.0012 24.3368 72.9569 23.9779C73.7752 23.6615 74.5184 23.1775 75.1389 22.5571C75.7593 21.9367 76.2432 21.1935 76.5596 20.3751C76.918 19.4189 77.1116 18.4088 77.132 17.3879C77.1895 16.0748 77.2038 15.6563 77.2038 12.3141C77.2038 8.97189 77.2008 8.55335 77.1433 7.24028ZM74.9265 17.2935C74.9184 18.0738 74.7751 18.8468 74.5028 19.5781C74.2976 20.1092 73.9836 20.5915 73.581 20.9942C73.1784 21.3968 72.6961 21.7108 72.1649 21.9159C71.4334 22.1874 70.6605 22.3304 69.8804 22.3386C68.5817 22.396 68.1918 22.4104 64.9071 22.4104C61.6224 22.4104 61.2274 22.396 59.9338 22.3386C59.1536 22.3309 58.3806 22.1879 57.6493 21.9159C57.1138 21.7197 56.6296 21.4052 56.2326 20.9958C55.8235 20.5992 55.508 20.1162 55.3093 19.5822C55.0421 18.8499 54.9033 18.0771 54.899 17.2976C54.8416 15.9989 54.8272 15.6091 54.8272 12.3243C54.8272 9.0396 54.8416 8.64465 54.899 7.35107C54.9067 6.57084 55.0497 5.79786 55.3217 5.06652C55.5176 4.53077 55.8334 4.0469 56.2449 3.65189C56.6414 3.24261 57.1244 2.92717 57.6585 2.72863C58.389 2.45916 59.1604 2.31757 59.939 2.31009C61.2377 2.25265 61.6275 2.23828 64.9122 2.23828C68.197 2.23828 68.5919 2.25265 69.8855 2.31009C70.6658 2.31816 71.4388 2.46151 72.17 2.73376C72.7047 2.93116 73.188 3.24677 73.5837 3.65702C73.9929 4.05389 74.3084 4.53722 74.5069 5.07165C74.7786 5.80309 74.9219 6.57597 74.9306 7.3562C74.988 8.65491 75.0024 9.04473 75.0024 12.3295C75.0024 15.6142 74.9839 15.9938 74.9254 17.2925L74.9265 17.2935Z" fill="#1F1F1F"/>
<path d="M64.9024 5.99023C63.6516 5.99023 62.4289 6.36114 61.3888 7.05607C60.3488 7.75099 59.5382 8.73871 59.0595 9.89433C58.5809 11.0499 58.4556 12.3216 58.6996 13.5484C58.9437 14.7751 59.546 15.902 60.4305 16.7865C61.3149 17.671 62.4418 18.2733 63.6686 18.5173C64.8954 18.7613 66.167 18.6361 67.3226 18.1574C68.4782 17.6788 69.466 16.8682 70.1609 15.8281C70.8558 14.7881 71.2267 13.5654 71.2267 12.3145C71.2262 10.6374 70.5597 9.0291 69.3738 7.84318C68.1879 6.65726 66.5796 5.99078 64.9024 5.99023ZM64.9024 16.4179C64.0909 16.4179 63.2975 16.1772 62.6227 15.7263C61.9479 15.2755 61.422 14.6346 61.1114 13.8848C60.8008 13.135 60.7196 12.31 60.8779 11.514C61.0362 10.718 61.4271 9.98689 62.0009 9.41302C62.5748 8.83916 63.3059 8.44835 64.1019 8.29002C64.8979 8.13169 65.7229 8.21295 66.4727 8.52353C67.2225 8.8341 67.8634 9.36004 68.3142 10.0348C68.7651 10.7096 69.0058 11.503 69.0058 12.3145C69.0058 13.4028 68.5735 14.4465 67.8039 15.216C67.0344 15.9856 65.9907 16.4179 64.9024 16.4179Z" fill="#1F1F1F"/>
<path d="M72.9543 5.73791C72.9543 6.02982 72.8677 6.31519 72.7056 6.55792C72.5434 6.80066 72.3129 6.98987 72.0433 7.10162C71.7736 7.21338 71.4768 7.24267 71.1905 7.1858C70.9042 7.12892 70.6412 6.98843 70.4347 6.78208C70.2282 6.57574 70.0875 6.31281 70.0304 6.02652C69.9734 5.74024 70.0025 5.44346 70.114 5.17371C70.2256 4.90395 70.4146 4.67333 70.6573 4.511C70.8999 4.34867 71.1852 4.26192 71.4771 4.26172C71.671 4.26158 71.8631 4.29967 72.0423 4.3738C72.2215 4.44792 72.3844 4.55663 72.5216 4.69372C72.6588 4.83081 72.7676 4.99359 72.8418 5.17276C72.9161 5.35192 72.9543 5.54396 72.9543 5.73791Z" fill="#1F1F1F"/>
</g>
<g clip-path="url(#clip2_1_721)">
<path d="M122.165 0.00390625H104.26C103.37 0.00390625 102.516 0.35765 101.886 0.987317C101.256 1.61698 100.902 2.471 100.902 3.36148V21.2665C100.902 22.157 101.256 23.011 101.886 23.6406C102.516 24.2703 103.37 24.6241 104.26 24.6241H122.165C123.056 24.6241 123.91 24.2703 124.539 23.6406C125.169 23.011 125.523 22.157 125.523 21.2665V3.36148C125.523 2.471 125.169 1.61698 124.539 0.987317C123.91 0.35765 123.056 0.00390625 122.165 0.00390625ZM109.296 19.4877C109.296 19.5559 109.283 19.6235 109.257 19.6866C109.231 19.7497 109.192 19.8071 109.144 19.8554C109.096 19.9037 109.039 19.942 108.976 19.9682C108.913 19.9943 108.845 20.0078 108.777 20.0078H106.565C106.497 20.0079 106.429 19.9946 106.366 19.9685C106.303 19.9424 106.245 19.9041 106.197 19.8557C106.149 19.8074 106.11 19.75 106.084 19.6869C106.058 19.6237 106.045 19.556 106.045 19.4877V10.2161C106.045 10.0782 106.1 9.94591 106.197 9.84837C106.295 9.75083 106.427 9.69604 106.565 9.69604H108.777C108.915 9.69631 109.047 9.75123 109.144 9.84873C109.241 9.94624 109.296 10.0784 109.296 10.2161V19.4877ZM107.673 8.81689C107.258 8.8173 106.852 8.69463 106.507 8.46441C106.162 8.23419 105.893 7.90676 105.733 7.52352C105.574 7.14029 105.532 6.71847 105.613 6.31142C105.694 5.90437 105.893 5.53038 106.186 5.23674C106.48 4.94311 106.853 4.74302 107.26 4.6618C107.667 4.58057 108.089 4.62185 108.473 4.78041C108.856 4.93897 109.184 5.2077 109.415 5.55259C109.645 5.89749 109.769 6.30307 109.769 6.71803C109.769 7.27423 109.548 7.80778 109.155 8.20136C108.762 8.59495 108.229 8.81635 107.673 8.81689ZM120.856 19.5236C120.856 19.5864 120.844 19.6486 120.82 19.7067C120.796 19.7647 120.761 19.8175 120.716 19.8619C120.672 19.9063 120.619 19.9415 120.561 19.9655C120.503 19.9895 120.441 20.0018 120.378 20.0016H117.999C117.936 20.0018 117.874 19.9895 117.816 19.9655C117.758 19.9415 117.705 19.9063 117.661 19.8619C117.616 19.8175 117.581 19.7647 117.557 19.7067C117.533 19.6486 117.521 19.5864 117.521 19.5236V15.1802C117.521 14.5308 117.711 12.3376 115.824 12.3376C114.363 12.3376 114.065 13.8384 114.006 14.5124V19.5287C114.006 19.6544 113.956 19.7751 113.868 19.8646C113.779 19.9541 113.659 20.0051 113.534 20.0068H111.238C111.175 20.0068 111.113 19.9944 111.055 19.9703C110.997 19.9463 110.944 19.9111 110.9 19.8667C110.856 19.8223 110.821 19.7696 110.797 19.7116C110.773 19.6536 110.761 19.5914 110.761 19.5287V10.1751C110.761 10.1124 110.773 10.0502 110.797 9.99224C110.821 9.93425 110.856 9.88155 110.9 9.83714C110.944 9.79274 110.997 9.75751 111.055 9.73347C111.113 9.70944 111.175 9.69706 111.238 9.69706H113.535C113.661 9.69706 113.783 9.74743 113.873 9.83708C113.962 9.92673 114.013 10.0483 114.013 10.1751V10.9804C114.342 10.4831 114.803 10.0861 115.343 9.83276C115.883 9.57946 116.483 9.47964 117.076 9.54421C120.878 9.54421 120.853 13.0946 120.853 15.0448L120.856 19.5236Z" fill="#1F1F1F"/>
</g>
<g clip-path="url(#clip3_1_721)">
<path d="M172.483 1.35661C172.06 0.91963 171.552 0.574003 170.99 0.341095C170.429 0.108187 169.825 -0.00705183 169.217 0.0025021H153.83C153.222 -0.00656851 152.619 0.108903 152.058 0.341795C151.497 0.574687 150.99 0.92006 150.567 1.35661C150.131 1.77904 149.786 2.28643 149.553 2.84749C149.32 3.40855 149.204 4.01137 149.213 4.61878V20.0064C149.204 20.6138 149.32 21.2166 149.553 21.7777C149.786 22.3387 150.131 22.8461 150.567 23.2685C150.99 23.7051 151.497 24.0505 152.058 24.2834C152.619 24.5163 153.222 24.6317 153.83 24.6227H169.217C170.441 24.6205 171.614 24.1334 172.479 23.2682C173.344 22.4029 173.831 21.23 173.834 20.0064V4.61878C173.843 4.0116 173.728 3.40891 173.496 2.84786C173.263 2.28682 172.918 1.77931 172.483 1.35661ZM168.051 9.4751C168.064 9.61903 168.069 9.76352 168.067 9.90801C168.061 11.7912 167.507 13.6319 166.472 15.2054C165.938 16.0273 165.288 16.7672 164.541 17.4018C163.742 18.0665 162.83 18.5822 161.849 18.9241C160.768 19.3095 159.629 19.5022 158.482 19.4935C156.651 19.5028 154.856 18.9796 153.317 17.9875C153.583 18.0201 153.85 18.0362 154.118 18.0357C155.636 18.0463 157.112 17.5369 158.301 16.5924C157.595 16.5898 156.91 16.3531 156.352 15.9194C155.795 15.4982 155.38 14.9164 155.163 14.2524C155.37 14.2881 155.579 14.3094 155.788 14.316C156.066 14.3099 156.342 14.2668 156.609 14.1878C155.836 14.0443 155.138 13.6349 154.635 13.0307C154.111 12.4398 153.824 11.6762 153.83 10.8867V10.8549C154.329 11.1046 154.875 11.2465 155.432 11.2713C154.966 10.971 154.587 10.5541 154.332 10.062C154.076 9.56986 153.954 9.01956 153.977 8.46568C153.978 7.86771 154.14 7.28096 154.445 6.76689C155.286 7.80097 156.335 8.64736 157.523 9.25147C158.727 9.87047 160.049 10.2258 161.401 10.2937C161.343 10.0416 161.316 9.78314 161.321 9.52434C161.321 8.63204 161.675 7.77614 162.306 7.1448C162.936 6.51346 163.792 6.15836 164.684 6.15754C165.145 6.14671 165.603 6.23562 166.026 6.41816C166.449 6.60071 166.828 6.87259 167.137 7.21518C167.895 7.06755 168.622 6.7899 169.285 6.39451C169.043 7.18546 168.51 7.85544 167.794 8.26974C168.462 8.18144 169.114 7.99908 169.73 7.7281C169.284 8.41024 168.715 9.00206 168.051 9.4751Z" fill="#1F1F1F"/>
</g>
<g clip-path="url(#clip4_1_721)">
<path d="M224.241 4.87202C224.068 4.22994 223.729 3.64457 223.258 3.17412C222.788 2.70368 222.203 2.36455 221.561 2.19047C219.181 1.53906 209.661 1.53906 209.661 1.53906C209.661 1.53906 200.14 1.53906 197.761 2.16585C197.12 2.34877 196.536 2.69381 196.066 3.16777C195.596 3.64172 195.256 4.22864 195.079 4.87202C194.647 7.28719 194.437 9.73688 194.452 12.1904C194.436 14.6428 194.646 17.0916 195.079 19.5056C195.253 20.1475 195.592 20.7326 196.062 21.2028C196.532 21.673 197.117 22.0121 197.759 22.1861C200.164 22.8375 209.659 22.8375 209.659 22.8375C209.659 22.8375 219.18 22.8375 221.559 22.2108C222.201 22.0368 222.786 21.6979 223.257 21.2276C223.727 20.7574 224.066 20.1722 224.24 19.5302C224.672 17.116 224.881 14.6674 224.866 12.215C224.896 9.75289 224.686 7.29374 224.241 4.87202ZM206.629 16.7482V7.62845L214.545 12.1904L206.629 16.7482Z" fill="#1F1F1F"/>
</g>
<defs>
<clipPath id="clip0_1_721">
<rect width="32.8269" height="24.6201" fill="white" transform="translate(0.171875)"/>
</clipPath>
<clipPath id="clip1_1_721">
<rect width="32.8269" height="24.6201" fill="white" transform="translate(48.4844)"/>
</clipPath>
<clipPath id="clip2_1_721">
<rect width="32.8269" height="24.6201" fill="white" transform="translate(96.797)"/>
</clipPath>
<clipPath id="clip3_1_721">
<rect width="32.8269" height="24.6201" fill="white" transform="translate(145.113)"/>
</clipPath>
<clipPath id="clip4_1_721">
<rect width="32.8269" height="24.6201" fill="white" transform="translate(193.426)"/>
</clipPath>
</defs>
</svg>
